<?xml version="1.0" encoding="utf-8" ?>
<svg baseProfile="full" height="300mm" version="1.1" viewBox="0,0,200,300" width="200mm" xmlns="http://www.w3.org/2000/svg" xmlns:ev="http://www.w3.org/2001/xml-events" xmlns:xlink="http://www.w3.org/1999/xlink"><defs /><rect fill="#222222" height="300" width="200" x="0" y="0" /><text fill="#FFFFFF" style="font-size:12px; font-family:Arial; font-weight:bold;" x="10" y="20">Over 10km Runs</text><text fill="#FFFFFF" style="font-size:4px; font-family:Arial" x="10" y="280">Runner</text><text fill="#FFFFFF" style="font-size:9px; font-family:Arial" x="10" y="290">yihong0618</text><text fill="#FFFFFF" style="font-size:4px; font-family:Arial" x="65" y="280">SPECIAL TRACKS</text><rect fill="yellow" height="2.6" width="2.6" x="65" y="283" /><text fill="#FFFFFF" style="font-size:3px; font-family:Arial" x="70" y="285.5">Over 20.0 km</text><rect fill="red" height="2.6" width="2.6" x="65" y="287" /><text fill="#FFFFFF" style="font-size:3px; font-family:Arial" x="70" y="289.5">Over 40.0 km</text><text fill="#FFFFFF" style="font-size:4px; font-family:Arial" x="120" y="280">STATISTICS</text><text fill="#FFFFFF" style="font-size:3px; font-family:Arial" x="120" y="285">Number: 6</text><text fill="#FFFFFF" style="font-size:3px; font-family:Arial" x="120" y="290">Weekly: 1.0</text><text fill="#FFFFFF" style="font-size:3px; font-family:Arial" x="141" y="285">Total: 71.2 km</text><text fill="#FFFFFF" style="font-size:3px; font-family:Arial" x="141" y="290">Avg: 11.9 km</text><text fill="#FFFFFF" style="font-size:3px; font-family:Arial" x="167" y="285">Min: 10.0 km</text><text fill="#FFFFFF" style="font-size:3px; font-family:Arial" x="167" y="290">Max: 21.2 km</text><polyline fill="none" points="51.95883512310684,106.0 62.144777754321694,101.6216607214883 67.62951609678566,91.89199975295924 66.45421502180398,45.67576869111508 59.402408584952354,36.91894554765895 48.43293190188706,34.0 37.85522224381566,38.37841747747734 32.76225092820823,47.135237246286124 32.76225092820823,88.97309658653103 35.89638712257147,98.21628222661093 44.51526165753603,105.0270361546427 56.66003941372037,105.0270361546427 65.27891395054758,98.21628222661093 68.02128311991692,88.48661250551231 66.45421502180398,45.67576869111508 59.402408584952354,36.91894554765895 48.824698926880956,34.0 38.24698926880956,37.89192689722404 32.37048390135169,48.10821596905589 32.76225092820823,88.48661250551231 36.288154147565365,99.18924782332033 46.47409677878022,105.51351810875349 57.05180643685162,105.0270361546427 65.27891395054758,98.21628222661093 68.02128311991692,88.00012836419046 66.45421502180398,45.67576869111508 59.794175608083606,36.91894554765895 48.43293190188706,34.0 37.85522224381566,38.37841747747734 32.37048390135169,48.10821596905589 33.937552001327276,94.32441733940504 41.38112546317279,103.56758991489187 51.95883512310684,106.0 62.53654477931559,101.6216607214883 67.62951609678566,92.8649669738952 67.23774907179177,51.027150641195476 63.32007882744074,40.324379176599905 53.52590321749449,34.0 42.94819355942309,35.45947305485606 34.72108604758978,42.27033987548202 31.978716880083084,51.51363953342661 33.545784974470735,93.83793394663371 40.20582439005375,102.59462544322014 49.999999998137355,106.0 60.18594263121486,103.08110770955682 67.23774907179177,93.35145049076527 67.23774907179177,51.027150641195476 63.711845852434635,40.8108694460243 54.70120429061353,34.48649108083919 43.339960584416986,34.97298209834844 35.11285307444632,41.78384979395196 31.978716880083084,51.51363953342661 33.937552001327276,94.32441733940504 41.38112546317279,103.56758991489187 51.567068096250296,106.0 61.36124370619655,102.10814311401919 67.62951609678566,92.37848339485936 67.23774907179177,51.027150641195476 64.10361287742853,41.297359650954604 54.70120429061353,34.48649108083919 43.339960584416986,34.97298209834844 34.72108604758978,42.27033987548202 31.978716880083084,51.51363953342661 33.937552001327276,94.32441733940504 40.20582439005375,102.59462544322014 52.35060214623809,106.0 61.36124370619655,102.10814311401919 67.62951609678566,92.37848339485936 67.23774907179177,51.027150641195476 63.32007882744074,40.324379176599905 53.52590321749449,34.48649108083919 43.73172760941088,34.97298209834844 34.72108604758978,42.27033987548202 31.978716880083084,51.51363953342661 33.937552001327276,94.32441733940504 40.597591415047646,103.08110770955682 51.567068096250296,106.0 62.144777754321694,101.6216607214883 67.62951609678566,92.37848339485936 67.23774907179177,51.027150641195476 64.49537990055978,41.78384979395196 54.309437269344926,34.48649108083919 43.339960584416986,34.97298209834844 35.11285307444632,41.78384979395196 31.978716880083084,53.459594482555985 33.545784974470735,93.35145049076527 39.4222903419286,102.10814311401919 51.175301073119044,106.0 61.36124370619655,102.10814311401919 67.62951609678566,92.8649669738952 67.23774907179177,52.973105838987976 63.32007882744074,40.324379176599905 53.917670242488384,34.48649108083919 43.339960584416986,34.97298209834844 34.72108604758978,42.27033987548202 31.978716880083084,51.51363953342661 33.545784974470735,93.83793394663371 40.9893584381789,103.08110770955682 52.35060214623809,106.0 61.75301073119044,102.10814311401919 67.62951609678566,91.89199975295924 67.23774907179177,51.027150641195476 64.10361287742853,41.297359650954604 54.309437269344926,34.48649108083919 43.339960584416986,34.97298209834844 34.32931902632117,43.24331984948367 32.76225092820823,88.00012836419046 36.67992116883397,99.67573052737862 46.08232975564897,105.51351810875349 57.44357346370816,104.54055413696915 65.27891395054758,97.72979933349416 68.02128311991692,88.00012836419046 66.45421502180398,45.18927904823795 58.61887453682721,36.432454778579995 48.43293190188706,34.0 37.85522224381566,38.37841747747734 32.76225092820823,47.135237246286124 32.76225092820823,84.10825297399424 36.288154147565365,98.70276505686343 44.907028682529926,105.0270361546427 55.876505363732576,105.0270361546427 64.88714692741632,98.21628222661093 68.02128311991692,88.97309658653103 66.45421502180398,46.16225827112794 60.5777096580714,37.40543625433929 48.824698926880956,34.0 38.63875629380345,37.89192689722404 32.37048390135169,47.621726639103144 32.76225092820823,88.48661250551231 35.89638712257147,98.70276505686343 44.907028682529926,105.0270361546427 57.05180643685162,104.54055413696915 65.27891395054758,98.21628222661093 68.02128311991692,88.97309658653103 67.23774907179177,51.51363953342661 63.32007882744074,40.324379176599905 55.092971317470074,34.48649108083919 44.12349463440478,34.97298209834844 35.11285307444632,41.297359650954604 31.978716880083084,53.459594482555985 33.545784974470735,93.83793394663371 40.597591415047646,103.08110770955682 51.95883512310684,106.0 61.75301073119044,102.10814311401919 67.62951609678566,91.89199975295924 67.23774907179177,51.51363953342661 63.32007882744074,40.324379176599905 53.134136194363236,34.0 43.73172760941088,34.97298209834844 34.32931902632117,42.75682989275083 31.978716880083084,52.00012836512178 33.937552001327276,94.81090066884644 41.77289248816669,103.56758991489187 52.74236916936934,106.0 61.75301073119044,101.6216607214883 67.62951609678566,92.37848339485936 67.23774907179177,52.973105838987976 64.10361287742853,41.297359650954604 54.309437269344926,34.48649108083919 42.94819355942309,34.97298209834844 34.72108604758978,42.27033987548202 31.978716880083084,51.51363953342661 33.545784974470735,93.35145049076527 40.20582439005375,102.59462544322014 50.78353404812515,106.0 61.36124370619655,102.10814311401919 67.62951609678566,92.8649669738952 67.23774907179177,51.027150641195476 64.10361287742853,41.297359650954604 55.876505363732576,34.97298209834844 43.73172760941088,34.97298209834844 34.72108604758978,42.27033987548202 31.978716880083084,53.94608306302689 33.937552001327276,94.32441733940504 40.9893584381789,103.08110770955682 52.35060214623809,106.0 62.53654477931559,101.13517826749012 67.62951609678566,92.37848339485936 67.23774907179177,51.027150641195476 64.10361287742853,41.297359650954604 54.70120429061353,34.48649108083919 42.55642653629184,35.45947305485606 34.32931902632117,42.75682989275083 32.76225092820823,89.45958060328849 37.46345522068441,100.16221317020245 47.257630828768015,105.51351810875349 57.83534048870206,104.54055413696915 66.06244799867272,96.27035028184764 68.02128311991692,88.48661250551231 66.45421502180398,45.67576869111508 59.01064155995846,36.432454778579995 48.43293190188706,34.0 38.24698926880956,38.37841747747734 32.37048390135169,47.621726639103144 32.76225092820823,86.54067556094378 35.89638712257147,98.21628222661093 44.12349463440478,105.0270361546427 57.05180643685162,104.54055413696915 65.67068097367883,97.24331637914293 68.02128311991692,88.48661250551231 66.45421502180398,46.16225827112794 59.01064155995846,36.432454778579995 48.04116487689316,34.0 38.24698926880956,38.37841747747734 32.37048390135169,48.10821596905589 33.937552001327276,94.32441733940504 40.597591415047646,103.08110770955682 52.35060214623809,106.0 62.92831180430949,101.13517826749012 67.62951609678566,91.89199975295924 66.45421502180398,45.67576869111508 59.402408584952354,36.91894554765895 48.824698926880956,34.0 38.24698926880956,38.37841747747734 32.37048390135169,48.10821596905589 33.937552001327276,94.32441733940504 40.597591415047646,103.08110770955682 51.567068096250296,106.0 62.144777754321694,101.6216607214883 67.62951609678566,92.37848339485936 67.23774907179177,51.027150641195476 62.92831180430949,39.83788884524256 53.134136194363236,34.0 42.164659513160586,35.45947305485606 33.937552001327276,43.24331984948367 32.76225092820823,88.48661250551231 34.72108604758978,96.27035028184764 44.907028682529926,105.0270361546427 57.05180643685162,104.54055413696915 64.49537990055978,99.18924782332033 68.02128311991692,90.919032280799 65.27891395054758,43.24331984948367 58.22710751183331,35.94596394873224 46.47409677878022,34.0 36.67992116883397,39.351398452185094 32.37048390135169,49.56768358708359 33.15401795133948,92.8649669738952 39.81405736505985,102.59462544322014 51.175301073119044,106.0 61.36124370619655,102.10814311401919 66.84598204679787,94.81090066884644 67.23774907179177,49.56768358708359 61.36124370619655,38.37841747747734 50.78353404812515,34.0 40.9893584381789,36.432454778579995 33.545784974470735,44.70278934179805 32.76225092820823,88.97309658653103 37.46345522068441,100.64869575062767 46.86586380377412,105.51351810875349 58.22710751183331,104.54055413696915 65.67068097367883,96.75683336146176 68.02128311991692,88.48661250551231 66.84598204679787,47.135237246286124 61.36124370619655,38.37841747747734 47.64939785376191,34.0 36.67992116883397,39.83788884524256 31.978716880083084,50.05417266744189" stroke="#4DD2FF" stroke-linecap="round" stroke-linejoin="round" stroke-width="0.5"><title>2025-06-03 10.0km</title><desc>14683754892</desc></polyline><polyline fill="none" points="130.21577035449445,69.51368463481776 134.52520651556551,94.32441733707674 138.44287575222552,101.13517826609313 146.27821422554553,105.02703615347855 158.4229888599366,105.02703615347855 167.82539502717555,96.2703502823133 169.78422964550555,88.48661250481382 167.82539502717555,43.72980974265374 159.59828962944448,35.459473056485876 149.02058269269764,34.0 141.185244217515,37.40543625410646 134.91697343811393,46.162258272990584 134.52520651556551,89.946064558113 136.87580805644393,97.24331637797877 145.88644730113447,104.54055413557217 156.85592116601765,105.5135181073565 167.82539502717555,96.75683336146176 169.3924627210945,50.54066168656573 167.43362810462713,43.24331985041499 158.81475578434765,35.459473056485876 147.061748072505,34.48649108153768 138.05110882781446,40.3243791772984 134.13343959115446,50.54066168656573 135.70050728693604,94.32441733707674 143.5358457621187,103.56758991396055 153.72178577631712,106.0 163.51595886796713,101.6216607214883 169.3924627210945,92.86496697436087 169.3924627210945,51.02715064189397 165.86656040884554,40.3243791772984 155.28885347023606,34.0 143.5358457621187,35.94596394896507 136.09227420948446,43.72980974265374 134.52520651556551,88.00012836209498 138.05110882781446,98.70276505453512 149.4123496133834,105.5135181073565 160.773590400815,104.05407205503434 167.82539502717555,96.2703502823133 169.3924627210945,50.54066168656573 167.43362810462713,42.75682989391498 159.59828962944448,35.459473056485876 148.6288157682866,34.0 140.0099434480071,38.37841747957282 134.91697343811393,47.621726639801636 134.52520651556551,86.0541911686305 138.05110882781446,99.189247822389 149.02058269269764,105.5135181073565 159.59828962944448,104.54055413557217 167.43362810462713,96.75683336146176 169.3924627210945,51.02715064189397 165.47479348629713,39.837888847338036 155.28885347023606,34.0 144.31937960535288,35.459473056485876 136.48404113389552,42.75682989391498 134.52520651556551,88.00012836209498 138.83464267663658,99.67573052761145 147.061748072505,105.02703615347855 159.2065227087587,104.54055413557217 167.82539502717555,96.75683336146176 169.3924627210945,52.00012836535461 165.86656040884554,40.81086944532581 156.4641542416066,34.48649108153768 146.27821422554553,34.48649108153768 136.48404113389552,42.75682989391498 134.13343959115446,51.51363953552209 135.308740362525,93.83793394523673 143.144078835845,103.08110770978965 155.28885347023606,105.5135181073565 165.08302656188607,100.64869574829936 169.3924627210945,91.89199975226074 169.3924627210945,48.108215970918536 165.47479348629713,39.837888847338036 154.50531962141395,34.0 142.36054498888552,36.43245478020981 135.308740362525,45.67576869158074 134.52520651556551,88.97309658583254 139.61817652359605,100.64869574829936 152.15471808053553,106.0 161.94889117218554,103.08110770978965 167.82539502717555,96.2703502823133 169.3924627210945,51.02715064189397 165.47479348629713,39.837888847338036 155.68062039464712,34.0 143.5358457621187,35.94596394896507 135.70050728693604,44.70278934342787 134.52520651556551,88.97309658583254 138.05110882781446,98.70276505453512 148.23704884387553,105.5135181073565 160.3818234782666,104.05407205503434 167.43362810462713,97.24331637797877 169.3924627210945,51.02715064189397 165.08302656188607,39.837888847338036 155.28885347023606,34.0 144.31937960535288,35.459473056485876 136.09227420948446,43.24331985041499 134.52520651556551,88.48661250481382 139.226409599185,100.1622131690383 150.19588346220553,106.0 162.73242502100766,102.59462544228882 168.60892887599766,94.32441733707674 169.3924627210945,49.08119444362819 164.2994927149266,38.86490799742751 154.897086545825,34.0 144.71114653162658,35.459473056485876 136.87580805644393,41.783849796047434 134.13343959115446,52.00012836535461 135.308740362525,93.35145049123093 142.36054498888552,103.08110770978965 157.24768808856606,105.02703615347855 167.82539502717555,96.75683336146176 169.78422964550555,89.45958060212433 169.00069580040872,47.13523724582046 163.9077257923782,38.37841747957282 154.11355269886553,34.0 143.144078835845,35.94596394896507 136.09227420948446,44.216299574356526 134.52520651556551,89.45958060212433 139.61817652359605,100.64869574829936 149.80411653965712,106.0 161.94889117218554,103.08110770978965 167.43362810462713,97.24331637797877 169.78422964550555,88.48661250481382 168.21716194972396,45.18927904893644 160.3818234782666,35.94596394896507 149.02058269269764,34.0 138.44287575222552,40.3243791772984 134.13343959115446,50.54066168656573 135.70050728693604,94.81090066791512 143.92761268280447,104.05407205503434 156.4641542416066,105.5135181073565 165.08302656188607,100.1622131690383 169.3924627210945,91.89199975226074 169.00069580040872,47.13523724582046 164.2994927149266,38.86490799742751 154.897086545825,34.0 144.71114653162658,35.459473056485876 136.87580805644393,42.270339875947684 134.13343959115446,51.02715064189397 135.308740362525,93.83793394523673 142.36054498888552,102.59462544228882 152.938251927495,106.0 163.9077257923782,101.6216607214883 169.3924627210945,92.37848339392804 169.3924627210945,51.51363953552209 166.25832733511925,40.81086944532581 156.85592116601765,34.48649108153768 144.71114653162658,35.459473056485876 136.87580805644393,42.270339875947684 134.13343959115446,52.00012836535461 135.70050728693604,94.32441733707674 144.31937960535288,104.05407205503434 155.68062039464712,105.5135181073565 163.9077257923782,101.6216607214883 169.3924627210945,92.37848339392804 169.3924627210945,52.00012836535461 165.08302656188607,39.351398452650756 154.11355269886553,34.0 143.144078835845,35.94596394896507 135.70050728693604,44.216299574356526 134.52520651556551,88.48661250481382 138.83464267663658,99.67573052761145 149.80411653965712,106.0 160.773590400815,103.56758991396055 168.21716194972396,95.78386713983491 169.3924627210945,51.51363953552209 167.82539502717555,43.72980974265374 159.59828962944448,35.459473056485876 150.19588346220553,34.0 140.0099434480071,38.37841747957282 134.52520651556551,48.5947052387055 135.70050728693604,94.81090066791512 144.71114653162658,104.05407205503434 158.03122193552554,105.02703615347855 165.86656040884554,99.67573052761145 169.78422964550555,90.91903227893636 168.21716194972396,45.18927904893644 161.16535732522607,36.43245478020981 150.19588346220553,34.0 139.61817652359605,38.86490799742751 134.52520651556551,49.08119444362819 135.70050728693604,94.32441733707674 143.144078835845,103.56758991396055 154.11355269886553,106.0 164.2994927149266,101.13517826609313 169.3924627210945,91.89199975226074 168.21716194972396,44.70278934342787 161.16535732522607,36.43245478020981 149.80411653965712,34.0 139.226409599185,39.351398452650756 134.52520651556551,49.08119444362819 135.308740362525,93.83793394523673 142.75231191143394,103.08110770978965 154.11355269886553,106.0 163.9077257923782,101.6216607214883 169.3924627210945,91.40551604703069 168.21716194972396,44.70278934342787 160.3818234782666,35.94596394896507 149.80411653965712,34.0 140.79347729496658,37.89192689792253 134.91697343811393,47.13523724582046 134.52520651556551,85.56770671415143 137.65934190526605,98.21628222521394 148.23704884387553,105.5135181073565 159.59828962944448,104.54055413557217 167.43362810462713,97.24331637797877 169.78422964550555,88.48661250481382 169.00069580040872,46.162258272990584 162.3406580965966,37.40543625410646 151.76295115612447,34.0 141.185244217515,37.40543625410646 134.91697343811393,46.64874779083766 134.52520651556551,88.48661250481382 138.05110882781446,98.70276505453512 147.45351499691606,105.5135181073565 158.81475578434765,104.54055413557217 167.82539502717555,96.75683336146176 169.3924627210945,51.02715064189397 166.65009425766766,41.297359651653096 156.4641542416066,34.48649108153768 144.71114653162658,35.459473056485876 136.09227420948446,43.72980974265374 134.52520651556551,88.48661250481382 138.05110882781446,98.70276505453512 148.6288157682866,105.5135181073565 159.2065227087587,104.54055413557217 167.04186118021607,98.21628222521394 169.78422964550555,88.97309658583254 168.21716194972396,45.18927904893644 160.773590400815,36.43245478020981 149.4123496133834,34.0 138.83464267663658,39.837888847338036 134.52520651556551,50.05417266767472 136.09227420948446,95.2973839356564 145.102913454175,104.54055413557217 157.63945501297712,105.02703615347855 165.86656040884554,99.67573052761145 169.3924627210945,91.89199975226074 168.21716194972396,44.70278934342787 159.99005655571818,35.459473056485876 149.80411653965712,34.0 140.0099434480071,38.37841747957282 134.52520651556551,48.5947052387055 135.70050728693604,94.81090066791512 143.92761268280447,104.05407205503434 157.24768808856606,105.02703615347855 165.86656040884554,99.189247822389 169.78422964550555,89.946064558113 167.82539502717555,44.216299574356526" stroke="#4DD2FF" stroke-linecap="round" stroke-linejoin="round" stroke-width="0.5"><title>2025-06-01 10.0km</title><desc>14663913218</desc></polyline><polyline fill="none" points="55.58364853213425,157.39035891736057 55.91228797257645,157.7830364562069 56.13782484343392,158.02027788911073 56.911094115057494,158.7892609056762 57.42016305218567,159.23919320155983 57.729470760852564,159.58277558928967 57.90345634694677,159.73820507001437 57.96789545295178,159.83637085014925 58.09032975425362,159.95907784921292 58.5993986914109,160.31083652081725 58.8184916517057,160.49080527540355 59.23734584051999,160.88346250053291 59.43710706901038,161.03070829674107 59.630424386879895,161.21885517658666 60.02350293332711,161.5624262157762 60.33925455255667,161.86509430905062 60.719445277762134,162.15958071660862 60.925650416873395,162.39680482601761 61.054528628796106,162.5685872156646 61.13829946654732,162.6340279964861 62.35619856935227,164.28638403485456 62.63328672503121,164.73627506667617 62.75572102633305,164.908050751681 63.19390694692265,165.38247627683813 63.419443817809224,165.57878918886126 63.58698549334076,165.76692179295424 63.67720024168375,165.91415559298912 63.74808325825143,166.0777482799749 63.79963454301469,166.29859769919494 63.85118582780706,167.19834618227833 63.89629320197855,167.48462695845592 63.98006403972977,167.79544453886047 64.09605443046894,167.9835701862321 64.31514739076374,168.20441258415303 64.96598236105638,168.67063275248438 65.29462180149858,168.97326495612288 66.59629174202564,170.59273024589493 67.47910749379662,171.63963402043737 67.88507386139827,171.97496652006157 68.50368927867385,172.34301222646172 68.56812838467886,172.40026357774695 68.60679184822948,172.4738723776136 68.62612358003389,172.56383856583125 68.61323575882125,172.6456258925282 68.57457229524152,172.71923439113743 68.49724536808208,172.79284279939384 68.39414279852645,172.82555761849653 68.1428302852728,172.85009372112108 68.02683989450452,172.84191502135218 67.87218604021473,172.86645111726466 67.68531263290788,172.874629813683 67.56287833154784,172.89916589621862 66.3192035863758,173.02184615825172 65.60392951013637,173.15270482772394 64.7855528643704,173.4471357897637 63.59342940393253,173.93785084677074 63.25190214230679,174.04417191305402 62.91037488068105,174.11777869470097 62.671950188610936,174.13413574498918 62.41419376473641,174.12595722039987 60.90631868506898,173.94602939701144 60.26837153598899,173.90513663458478 60.07505421809037,173.91331518929292 59.901068631967064,173.92967229538772 59.54665354915778,173.99510067512892 58.70250126096653,174.24863497222395 58.47052047948819,174.29770600264965 58.122549307270674,174.33859849735745 57.87768070457969,174.33859849735745 57.54904126416659,174.3140630038797 57.35572394623887,174.27317049246994 56.898206293873955,174.14231426847982 56.4278008202964,173.91331518929292 56.28603478716104,173.81517245904615 55.8349610453879,173.57799353102382 55.44832640959066,173.38988543817322 55.248565181100275,173.33263503190392 55.09391132675228,173.31627776292953 55.07457959494786,173.35717092701816 54.92636965124984,173.33263503190392 54.829710992315086,173.3489922964145 54.745940154534765,173.30809912677796 54.64283758500824,173.30809912677796 54.57195456844056,173.32445639796788 54.449520267080516,173.31627776292953 54.40441289290902,173.33263503190392 54.29486641276162,173.2999204894877 54.18531993261422,173.2999204894877 53.914675687556155,173.25084864239398 53.637587531877216,173.11999018714778 53.48293367755832,173.07909686129278 53.128518594719935,172.94005934477536 53.083411220577545,172.93188065730646 53.04474775699782,172.94823803113832 52.95453300862573,172.92370196871707 52.92231345563778,172.94005934477536 52.76765960131888,172.84191502135218 52.67100094235502,172.82555761849653 52.6323374787753,172.801021505853 52.61944965759176,172.8173789154098 52.50345926685259,172.74377053728313 52.45190798206022,172.67016206875996 52.36813714433811,172.62108970623012 52.01372206149972,172.52294486063693 51.17601368392934,172.2366881433627 50.23520273680333,171.86046295057167 49.91945111754467,171.70506489936815 49.81634854801814,171.68870718632024 48.97864017038955,171.3942675885446 48.70799592533149,171.33701527658923 48.45023950145696,171.3124785547152 48.05071704447619,171.3206574631222 47.52231637551449,171.41880427690194 47.16790129270521,171.53330868991907 46.67172017676057,171.77867455277737 46.34308073631837,171.99132415496933 45.00919124277425,172.92370196871707 43.6817456598219,173.8969580787525 43.088905884942506,174.23227795314233 42.50251002062578,174.42856188749647 42.08365583186969,174.518525142641 41.58103080527508,174.54306055245252 40.814205444272375,174.44491885301977 40.685327232349664,174.48581124731572 40.498453825042816,174.62484517924895 40.38246343427454,174.92744732846768 40.279360864748014,175.30365327625623 40.118263099808246,176.02334503403836 40.07315572563675,176.2932272161197 39.95072142430581,177.88796076852304 39.886282318329904,178.28868201904697 39.8218432123831,178.52584231402943 39.73162846401101,178.73846798794693 39.51253550371621,179.1310057128503 39.055017851351295,179.8179405484043 38.82303706984385,180.1205164914063 38.59750019898638,180.47215688538927 38.45573416582192,180.63570985443585 38.1335386360297,181.10183336901173 37.96599696049816,181.5107106619289 37.90155785449315,181.90323024036843 37.90155785449315,182.39387610056656 37.98532869227347,182.85180861503977 38.262416847923305,183.53870083042057 38.378407238662476,183.99662460332183 38.39773897046689,184.54449309455958 38.46862198703457,184.8306910625579 38.44284634466749,185.14959576096953 38.45573416582192,185.26407395702336 38.539505003602244,185.35402095780591 39.074349583126605,185.6810998234323 39.12590086788987,185.79557700496298 39.12590086788987,185.92640780205693 39.10012522552279,185.96729236762258 39.01635438774247,186.0 38.93258354999125,186.0 38.790817516885,185.95911545672425 38.552392824785784,185.82828473099653 37.65668925183127,185.25589695028248 37.3860450067732,185.12506469052096 37.21850333127077,185.1005336100352 36.606331824557856,185.15777278222595 36.53544880801928,185.1005336100352 36.47100970201427,184.97787805716143 36.39368277488393,184.7407432769287 36.374351043079514,184.6180869882046 36.400126685446594,184.42183640448638 36.62566355636227,183.8657895964243 36.65788310932112,183.7267770888502 36.64499528816668,183.59594149327677 36.5741122715699,183.49781460924714 36.44523405964719,183.40786482452313 35.89105774831842,183.23614213362453 35.72995998340775,183.15436925083122 35.61396959266858,183.0480643365263 35.272442331013735,182.68826168986925 35.07912501311512,182.5247143186789 34.40895831104717,182.066779306464 33.809674625546904,181.70697077230943 32.95907842676388,180.97916963747412 32.73354155590641,180.79926237742984 32.47578513203189,180.72566379728232 31.39965206233319,180.73384142177383 31.37387641996611,180.67659802702474 31.425427704758476,180.5539334256755 31.599413290823577,179.74434076384932 31.61874502262799,179.71980748224814 31.689628039195668,179.71162971950253 32.056930943217594,179.83429604380217 32.2309165293409,179.85065153475443 32.36623865188449,179.89154024260642 32.51444859558251,179.89154024260642 32.714209824072896,179.82611829666348 32.888195410196204,179.71980748224814 33.27483004599344,179.35180705388848 33.57769384406856,179.11465002561818 33.69368423480773,179.0492272320771 33.82900635735132,178.89384781131594 34.05454322823789,178.583087761941 34.34451920510037,178.32957179199366 35.24022277802578,176.1787318932802 36.11659461920499,174.15049279083905 36.28413629473653,173.8315295919092 36.400126685446594,173.53710051755115 37.03162992396392,172.1957942150475 37.57936232467182,170.99350025675813 37.86289439094253,170.63362526770652 38.28819249031949,170.29010621744237 38.61683193073259,169.94658519880977 38.95835919241654,169.5376290386339 39.486759861320024,168.62155711603555 39.596306341467425,168.5152264325734 39.84761885472108,168.34346108395766 39.94427751368494,168.23712990723652 40.15692656338797,167.8854177482317 40.24714131173096,167.68911239009685 40.562892930960516,167.14926934053074 40.6337759475573,167.08383348901043 40.839981086639455,166.95296157168195 41.08484968933044,166.60942142927524 41.14928879530635,166.5521645474655 41.33616220258409,166.4540097657009 41.41348912977264,166.38039357389425 41.458596503944136,166.25769971997215 41.484372146311216,165.97959272134176 41.70990901722689,165.79964044643202 41.890338513912866,165.60332825767546 42.811817729263566,164.76899428272372 43.41110141479294,164.20458530263932 43.7912921399693,163.78741003195682 44.20370241816272,163.20663178115865 44.435683199670166,162.94487072977063 44.57100532218465,162.8221698434354 44.77721046129591,162.55222700927334 44.91897649440216,162.2741028176788 45.266947666648775,161.77511206261624 45.33783068321645,161.69330990313756 45.54403582229861,161.52970524929333 45.64069448126247,161.30065798361102 45.898450905137,160.85074116335454 45.97577783232555,160.60533056513668 46.01444129587617,160.53170718970796 46.111099954810925,160.4826248892059 46.42685157406959,160.40900136302662 46.736159282707376,160.26993445578773 46.826374031050364,160.19631066833608 46.903700958238915,160.05724326756535 46.95525224303128,159.9099950797281 46.910144868830685,159.82000989794687 47.019691348978085,159.64003912908083 47.05191090196604,159.52551199478694 47.20656475631404,159.19829040513287 47.64475067687454,158.31478318891823 47.75429715702194,157.93847060454937 47.825180173589615,157.83212096765783 47.941170564328786,157.70940961365704 48.06360486565973,157.44762455202363 48.16026352462359,157.05494481540154 48.40513212728547,156.16322502442927 48.46957123326138,155.99960527349322 48.55334207098349,155.63145920044553 48.59844944518409,155.31239744103732 48.662888551159995,155.08332641230663 48.67577637237264,154.93606600284693 48.6177811769885,154.61700054093308 48.60489335577586,154.41247050509992 48.7273276571359,153.79069490935944 49.00441581281484,152.99710352687907 49.24928441547672,152.44076515707275 49.40393826979562,152.13804946240634 49.58436776648159,151.92532941072204 49.66169469367014,151.8026059604599 49.80346072677639,151.45897896251336 50.009665865887655,150.65717497027072 50.06121715065092,150.36263203356066 50.20298318378627,149.8635420854771 50.34474921692163,149.5035401977948 50.40274441227666,149.18444580722644 50.47362742887344,149.00444309359955 50.550954356003786,148.8489857693603 51.02135982958134,147.55621976498514 51.13090630972874,147.1225641611818 51.17601368392934,146.69708768795317 51.743077816441655,144.77422363343067 51.95572686611558,144.2178089044428 52.20703937939834,143.30134984961842 52.271478485374246,142.70400738273383 52.31014194895397,142.54035087283773 52.36169323371723,141.6402320764755 52.484127535048174,140.35549363809696 52.53567881984054,139.25894349376904 52.61300574699999,138.1869235742488 52.55501055161585,137.64681466703405 52.6323374787753,137.2458215705883 52.799879154306836,136.80390770176746 52.844986528507434,136.58294954467056 53.122074684128165,135.46177892668493 53.48293367755832,133.89865201535576 53.57314842590131,133.78407566316673 53.644031442468986,133.75133952227043 53.70202663785312,133.75952355915797 54.842598813498626,134.09506810916355 55.30656037648441,134.25874769527945 55.47410205198685,134.29148355879806 56.76932808192214,134.70068034338692 56.917538025649264,134.73341596538376 56.9755332210334,134.73341596538376 57.020640595204895,134.70068034338692 57.059304058755515,134.62702512849137 57.11085534354788,133.9395720880275 57.033528416388435,133.726787404863 56.865986740886,133.53855417032173 56.79510372434743,133.3257680623683 56.801547634910094,133.1620859264367 57.65858774431399,130.4039746559465 57.851905062183505,129.9129029478754 58.257871429785155,129.04533308867758 58.3351983569446,128.8407157240399 58.57362304904382,128.37418551830706 58.799159919901285,128.0386089122876 59.54020963853691,127.0646076248704 59.73352695646463,126.84361353099666 61.70536359908874,124.31440081833352 61.860017453407636,124.06065513483554 62.1757690726663,123.62682937856152 62.478632870683214,123.0865891366484 62.53018415547558,122.9638065836516 62.684838009794476,122.13706417116919 62.800828400533646,121.70322447667422 62.942594433669,120.99925149061528 62.942594433669,120.92557942059648 62.91681879127282,120.86009306004416 62.78149666875834,120.67181937437635 62.71061365219066,120.5244743378571 62.62684281441034,119.99239202001263 62.65906236739829,119.60765262886707 62.71061365219066,119.30477094325397 62.66550627799006,118.90365500115877 62.800828400533646,117.83127061163032 62.800828400533646,117.49563490908622 62.7235014733742,117.27460549195166 62.51729633426294,116.84073055911358 62.40130594352377,116.60332596288936 62.31109119518078,116.48053011262891 61.860017453407636,116.21037835543757 61.5378219235572,116.03846296607298 60.79032829432981,115.81742816856786 60.719445277762134,115.78468220324066 60.62923052941915,115.71100371574357 60.49390840687556,115.49815424241388 59.8495173472038,114.23741492108456 59.707751314068446,114.0" stroke="yellow" stroke-linecap="round" stroke-linejoin="round" stroke-width="0.5"><title>2025-05-01 21.2km</title><desc>14338907835</desc></polyline><polyline fill="none" points="181.3366321939975,183.83460414037108 182.21318134479225,167.05274906521663 176.51561185717583,155.6843582247384 151.97223559208214,121.03764741960913 143.64501864649355,115.08271574275568 130.93505593761802,115.62407350959256 122.16956441476941,121.57900443393737 117.78681865520775,133.48884141724557 121.73128983937204,145.93999917292967 152.41051016934216,183.29325500363484 168.18839490786195,184.91730220708996 176.51561185717583,180.0451587489806 182.21318134479225,167.05274906521663 177.39216100797057,153.51894702017307 147.15121525526047,116.706788840238 134.87952712364495,114.54135790560395 123.48438814282417,119.95493318652734 117.78681865520775,130.78206319687888 117.78681865520775,136.73697302117944 147.15121525526047,178.42110969591886 156.79325592890382,184.91730220708996 168.62666948512197,184.91730220708996 179.14525931328535,176.7970600281842 182.21318134479225,165.9700464787893 178.26871015876532,154.60165275959298 148.9043135587126,117.78950389567763 137.07090000249445,114.54135790560395 126.55231017619371,117.78950389567763 118.22509322874248,128.61663938546553 119.10164238139987,141.60916580352932 147.15121525526047,178.42110969591886 155.91670677624643,184.91730220708996 169.5032186359167,184.37595320865512 178.70698473602533,177.87975987512618 182.21318134479225,165.4286950812675 178.26871015876532,154.60165275959298 148.02776440791786,117.24814640171826 136.1943508516997,114.54135790560395 124.36093729361892,119.41357596637681 118.22509322874248,129.69935142900795 119.10164238139987,141.0678113233298 146.27466610260308,177.3384099858813 155.04015762545168,184.37595320865512 168.62666948512197,184.91730220708996 178.70698473602533,177.3384099858813 182.21318134479225,167.5941002573818 178.26871015876532,154.60165275959298 149.34258813597262,118.33086132118478 138.38572373241186,114.54135790560395 125.2374864500016,118.33086132118478 118.22509322874248,129.15799544099718 120.85474068671465,144.85729124117643 117.78681865520775,134.030196855776 120.85474068671465,123.20307506620884 129.62023220956326,115.62407350959256 141.89192033931613,114.54135790560395 153.72533389739692,122.66171825723723 180.89835761673748,158.9324729773216 181.3366321939975,171.9249073206447 174.76251355186105,181.6692071845755 164.24392372369766,186.0 153.2870593201369,183.29325500363484 163.8056491483003,186.0 173.88596439920366,182.21055652713403 181.77490676939487,170.3008551853709 181.3366321939975,160.01517734583467 152.41051016934216,121.57900443393737 142.33019491657615,115.08271574275568 131.8116050902754,115.08271574275568 121.29301526397467,122.12036138074473 117.78681865520775,135.11290752748027 121.73128983937204,145.39864524221048 150.65741186216474,181.6692071845755 162.49082542024553,186.0 173.88596439920366,182.21055652713403 181.3366321939975,172.46625789487734 180.89835761673748,158.9324729773216 152.84878474473953,122.12036138074473 144.08329322189093,115.62407350959256 131.37333051487803,115.08271574275568 120.85474068671465,123.7444318071939 117.78681865520775,135.6542627592571 121.73128983937204,145.93999917292967 151.53396101668477,182.75190579984337 164.24392372369766,186.0 175.6390627026558,181.12785777496174 181.77490676939487,170.3008551853709 180.89835761673748,159.47382519533858 152.84878474473953,121.57900443393737 142.76846949383616,115.08271574275568 130.05850678682327,115.62407350959256 120.85474068671465,123.20307506620884 117.78681865520775,136.19561792491004 122.16956441476941,146.48135303519666 151.09568643942475,182.21055652713403 162.92909999750555,186.0 175.6390627026558,181.12785777496174 181.77490676939487,170.3008551853709 180.46008304320276,158.3911206885241 152.84878474473953,121.57900443393737 141.4536457657814,114.54135790560395 129.18195763230324,116.16543120983988 120.41646611131728,123.7444318071939 118.22509322874248,137.27832804899663 146.71294067800045,177.87975987512618 158.98462881147861,185.4586511370726 170.81804236583412,184.37595320865512 179.58353388868272,175.71435990463942 181.77490676939487,163.80464048031718 152.84878474473953,122.12036138074473 140.577096613124,114.54135790560395 129.18195763230324,116.16543120983988 120.85474068671465,123.20307506620884 117.78681865520775,135.6542627592571 122.60783899016678,147.0227068294771 152.41051016934216,182.75190579984337 162.92909999750555,186.0 175.20078812725842,181.12785777496174 181.77490676939487,169.75950433779508 180.46008304320276,157.8497683322057 148.46603898331523,117.78950389567763 137.07090000249445,114.0 125.67576102539897,118.33086132118478 118.22509322874248,129.15799544099718 119.53991695865989,141.60916580352932 145.83639152534306,176.7970600281842 157.23153050616384,184.91730220708996 169.94149321503937,184.37595320865512 179.58353388868272,176.25571000110358 181.77490676939487,163.80464048031718 152.84878474473953,121.57900443393737 142.33019491657615,115.08271574275568 132.24987966567278,115.08271574275568 123.92266272008419,119.41357596637681 118.6633678060025,128.075283262413 118.22509322874248,137.81968300743029 117.78681865520775,136.73697302117944 119.97819153405726,124.82714508101344 129.18195763230324,116.16543120983988 141.89192033931613,114.54135790560395 151.97223559208214,121.03764741960913 181.77490676939487,162.72193707013503 180.46008304320276,174.09030920872465 169.06494406238198,184.91730220708996 158.10807965882123,185.4586511370726 146.71294067800045,177.87975987512618 117.78681865520775,134.5715522263199 120.41646611131728,123.7444318071939 130.05850678682327,115.62407350959256 141.89192033931613,114.54135790560395 152.84878474473953,121.57900443393737 180.46008304320276,158.9324729773216 181.77490676939487,169.75950433779508 178.26871015876532,177.87975987512618 164.68219829909503,186.0 154.60188304819167,184.37595320865512 144.5215677972883,175.17300974205136 119.53991695865989,141.60916580352932 118.22509322874248,129.69935142900795 124.79921187087893,118.87221867917106 136.63262542895973,114.54135790560395 148.9043135587126,117.78950389567763 178.26871015876532,154.60165275959298 182.21318134479225,164.88734361575916 179.58353388868272,176.25571000110358 169.06494406238198,184.91730220708996 156.79325592890382,184.91730220708996 144.5215677972883,175.17300974205136 117.78681865520775,136.73697302117944 120.41646611131728,124.28578847879544 130.05850678682327,115.62407350959256 143.20674407109618,115.08271574275568 153.2870593201369,122.12036138074473 180.46008304320276,157.8497683322057 181.77490676939487,170.3008551853709 176.0773372799158,180.58650829689577 165.55874745175242,186.0 152.41051016934216,183.29325500363484 119.53991695865989,142.15052021387964 118.22509322874248,129.69935142900795 123.92266272008419,119.41357596637681 134.87952712364495,114.54135790560395 146.71294067800045,116.706788840238 180.02180846594274,157.3084159088321 182.21318134479225,168.13545137969777 180.46008304320276,174.63165950914845 169.94149321503937,184.37595320865512 158.98462881147861,185.4586511370726 147.58948983252048,178.96245944919065 117.78681865520775,136.19561792491004 119.97819153405726,125.36850161664188 128.74368305690587,116.16543120983988 142.33019491657615,114.54135790560395 152.84878474473953,122.12036138074473 180.46008304320276,158.3911206885241 181.77490676939487,169.75950433779508 176.9538864325732,180.0451587489806 170.37976779043674,184.37595320865512 155.91670677624643,184.91730220708996 150.65741186216474,182.21055652713403 165.12047287635505,186.0 175.6390627026558,181.12785777496174 181.77490676939487,170.3008551853709 180.89835761673748,159.47382519533858 151.53396101668477,120.49629033776 141.89192033931613,114.54135790560395 130.496781360358,115.62407350959256 122.16956441476941,121.57900443393737 118.22509322874248,129.69935142900795 117.78681865520775,136.73697302117944 121.73128983937204,145.39864524221048 117.78681865520775,131.864774689544 123.92266272008419,119.41357596637681 135.7560762744397,114.54135790560395 149.34258813597262,118.33086132118478 180.46008304320276,157.8497683322057 181.77490676939487,169.75950433779508 176.9538864325732,179.50380913261324 171.25631694309413,183.83460414037108 158.10807965882123,185.4586511370726 147.15121525526047,178.42110969591886 117.78681865520775,136.19561792491004 120.85474068671465,123.20307506620884 130.93505593761802,115.08271574275568 142.33019491657615,115.08271574275568 153.72533389739692,122.66171825723723 180.89835761673748,159.47382519533858 181.3366321939975,171.38355667795986 175.20078812725842,181.12785777496174 162.49082542024553,186.0 149.34258813597262,180.58650829689577 156.35498135350645,184.91730220708996 170.37976779043674,184.37595320865512 180.02180846594274,175.17300974205136 181.77490676939487,163.80464048031718 177.39216100797057,153.51894702017307 147.15121525526047,116.706788840238 135.31780170090497,114.54135790560395 124.79921187087893,118.33086132118478 118.6633678060025,126.99257081048563 119.53991695865989,142.15052021387964 118.6633678060025,139.98510215897113 118.6633678060025,128.075283262413 123.0461135674268,120.49629033776 130.93505593761802,115.08271574275568 141.4536457657814,114.54135790560395 151.09568643942475,119.95493318652734 180.02180846594274,156.76706341607496 180.46008304320276,158.3911206885241 149.78086271137,118.87221867917106 135.7560762744397,114.54135790560395 124.79921187087893,118.87221867917106 118.22509322874248,129.69935142900795 118.6633678060025,139.98510215897113 146.27466610260308,177.3384099858813 159.86117796227336,186.0 171.69459151662886,183.83460414037108 180.89835761673748,173.00760840298608 180.89835761673748,160.01517734583467 151.09568643942475,119.95493318652734 139.2622728869319,114.54135790560395 125.2374864500016,118.33086132118478 119.10164238139987,126.45121448114514 119.10164238139987,141.0678113233298 148.9043135587126,180.58650829689577 156.79325592890382,184.91730220708996 166.43529660627246,185.4586511370726" stroke="#4DD2FF" stroke-linecap="round" stroke-linejoin="round" stroke-width="0.5"><title>2025-03-12 10.0km</title><desc>13858705192</desc></polyline><polyline fill="none" points="54.636751372367144,203.27279474399984 42.713676411658525,194.5454590669833 29.465815341100097,195.63637699186802 18.867526486516,206.00008352054283 17.98433574847877,216.9092213655822 21.517098700627685,225.63651176262647 50.66239305026829,262.18184837931767 59.935895800590515,266.0 74.50854297541082,262.18184837931767 80.69087814353406,254.00008351868019 82.01566424779594,242.0001336298883 50.220797684043646,198.36367060011253 38.29772272147238,194.0 25.933052390813828,197.2727533634752 18.425931118428707,207.63645595684648 18.425931118428707,219.63650151295587 47.12963010184467,258.36369337607175 55.51994211040437,264.90909988153726 67.0014217030257,265.4545499747619 78.04130592942238,258.90914429863915 82.45725961588323,246.90920807700604 75.39173371344805,230.5456048459746 49.33760694600642,197.81821201601997 37.414531983435154,194.0 26.37464775890112,197.2727533634752 18.425931118428707,208.18191329855472 18.867526486516,220.18195733660832 46.24643936380744,257.2727913269773 55.51994211040437,264.90909988153726 66.5598263349384,266.0 78.92449666559696,257.81824238598347 82.45725961588323,246.36375563731417 78.04130592942238,233.81833046255633 48.89601157605648,197.2727533634752 38.29772272147238,194.0 25.933052390813828,197.2727533634752 18.867526486516,207.09099854622036 18.867526486516,220.18195733660832 47.57122546993196,258.90914429863915 57.28632358647883,265.4545499747619 69.65099391713738,264.90909988153726 79.80768740177155,255.63643773365766 82.45725961588323,244.7273979028687 78.04130592942238,234.3637844901532 48.45441620796919,197.2727533634752 36.089745877310634,194.0 25.049861654639244,198.36367060011253 17.98433574847877,209.81828490737826 19.750717226415873,222.36377993412316 51.54558379203081,262.7272988189943 63.468658750876784,266.0 76.71651982143521,260.54549664864317 82.01566424779594,249.09101714752614 80.24928277172148,237.6365072070621 47.57122546993196,196.72729464247823 35.20655514113605,194.0 24.166670912876725,198.9091291143559 17.98433574847877,210.36374197062105 19.30912185832858,221.81832438753918 51.54558379203081,262.7272988189943 64.79344485886395,266.0 76.71651982143521,260.000045934692 82.01566424779594,249.636469242163 80.69087814353406,238.18196075130254 47.57122546993196,196.72729464247823 35.20655514113605,194.0 25.049861654639244,197.81821201601997 18.425931118428707,208.18191329855472 19.30912185832858,221.27286877296865 46.68803473189473,257.81824238598347 57.28632358647883,265.4545499747619 70.09258928708732,264.90909988153726 80.24928277172148,255.63643773365766 82.45725961588323,244.1819451856427 78.48290129564703,234.3637844901532 48.45441620796919,197.2727533634752 36.97293661348522,194.0 25.491457022726536,197.81821201601997 18.425931118428707,208.72737057041377 18.867526486516,220.7274130890146 45.363248623907566,256.1818889998831 57.28632358647883,265.4545499747619 70.09258928708732,264.36364971799776 79.36609203368425,256.72734019719064 82.45725961588323,245.27285054931417 78.04130592942238,234.3637844901532 48.01282083801925,196.72729464247823 36.53134124726057,194.0 25.049861654639244,198.36367060011253 18.425931118428707,208.18191329855472 19.30912185832858,221.27286877296865 46.24643936380744,257.81824238598347 56.84472821652889,265.4545499747619 70.09258928708732,264.36364971799776 79.36609203368425,256.72734019719064 82.45725961588323,244.7273979028687 78.04130592942238,233.81833046255633 49.33760694600642,197.81821201601997 36.53134124726057,194.0 25.049861654639244,198.36367060011253 18.425931118428707,208.72737057041377 19.30912185832858,221.27286877296865 44.921653255820274,256.1818889998831 55.51994211040437,264.90909988153726 68.32620780915022,265.4545499747619 76.71651982143521,260.000045934692 82.01566424779594,249.636469242163 80.69087814353406,238.18196075130254 52.428774528205395,201.09096248215064 41.83048567175865,194.5454590669833 29.024219973012805,195.63637699186802 20.192312594503164,203.81825263705105 17.98433574847877,216.36376513028517 48.89601157605648,261.0909472950734 61.70227727666497,266.0 72.742161501199,263.27274918789044 80.24928277172148,255.63643773365766 82.01566424779594,243.09103954629973 50.66239305026829,198.9091291143559 36.089745877310634,194.0 24.166670912876725,198.9091291143559 18.425931118428707,208.72737057041377 18.867526486516,220.7274130890146 46.68803473189473,258.36369337607175 56.84472821652889,265.4545499747619 68.32620780915022,265.4545499747619 78.04130592942238,258.90914429863915 82.01566424779594,250.1819212688133 80.69087814353406,238.18196075130254 49.33760694600642,197.81821201601997 36.089745877310634,194.0 24.608266284689307,198.36367060011253 18.425931118428707,208.18191329855472 19.30912185832858,221.81832438753918 44.48005788587034,255.09098639711738 57.28632358647883,265.4545499747619 69.65099391713738,264.90909988153726 80.24928277172148,255.63643773365766 82.01566424779594,244.1819451856427 78.48290129564703,234.3637844901532 48.45441620796919,197.2727533634752 36.089745877310634,194.0 25.049861654639244,198.36367060011253 18.425931118428707,208.72737057041377 19.30912185832858,221.27286877296865 46.24643936380744,257.81824238598347 58.16951432451606,266.0 70.09258928708732,264.90909988153726 79.36609203368425,256.72734019719064 82.45725961588323,244.7273979028687 78.48290129564703,234.3637844901532 48.45441620796919,197.2727533634752 36.089745877310634,194.0 25.049861654639244,198.36367060011253 17.98433574847877,208.72737057041377 19.30912185832858,221.27286877296865 47.12963010184467,258.90914429863915 56.403132850304246,265.4545499747619 69.65099391713738,264.90909988153726 78.48290129564703,257.81824238598347 82.45725961588323,244.1819451856427 78.92449666559696,235.4546923385933 49.33760694600642,197.81821201601997 37.414531983435154,194.0 25.049861654639244,198.36367060011253 18.425931118428707,208.18191329855472 18.867526486516,220.7274130890146 42.27208104170859,252.36372868344188 51.103988422080874,262.7272988189943 64.35184949077666,266.0 75.39173371344805,261.63639787072316 82.01566424779594,251.27282511396334 81.13247350975871,239.27286763349548 57.28632358647883,206.54554106807336 42.713676411658525,194.5454590669833 29.90741071291268,195.09091806411743 20.192312594503164,203.81825263705105 17.542740382254124,215.81830882374197 21.517098700627685,225.09105663048103 50.66239305026829,262.18184837931767 62.5854680147022,266.0 75.39173371344805,261.63639787072316 81.57406887970865,251.81827693386003 81.13247350975871,238.72741422755644 52.87036989629269,201.09096248215064 44.038462517783046,195.09091806411743 30.790601449087262,195.09091806411743 21.517098700627685,201.63642065180466 17.542740382254124,214.18193949200213 25.491457022726536,230.5456048459746 50.66239305026829,262.18184837931767 63.468658750876784,266.0 74.95013834349811,261.63639787072316 81.57406887970865,251.27282511396334 80.69087814353406,238.72741422755644 54.636751372367144,203.27279474399984 43.596867149695754,194.5454590669833 30.790601449087262,195.09091806411743 20.633907962590456,202.72733678203076 17.542740382254124,215.27285244967788 21.517098700627685,225.63651176262647 50.220797684043646,262.18184837931767 62.5854680147022,266.0 74.50854297541082,262.18184837931767 81.57406887970865,251.81827693386003 81.13247350975871,239.27286763349548 58.61110969260335,208.72737057041377 49.33760694600642,197.81821201601997 36.089745877310634,194.0 24.608266284689307,198.36367060011253 17.98433574847877,209.2728277738206 18.867526486516,220.7274130890146 45.8048439938575,257.2727913269773 56.84472821652889,265.4545499747619 68.76780317910016,264.90909988153726 78.92449666559696,257.81824238598347 82.45725961588323,245.27285054931417 77.5997105576098,233.27287636464462 49.33760694600642,197.81821201601997 36.97293661348522,194.0 25.491457022726536,197.81821201601997 18.425931118428707,207.63645595684648 18.867526486516,220.18195733660832 46.68803473189473,258.36369337607175 55.51994211040437,264.90909988153726 68.76780317910016,265.4545499747619 78.48290129564703,257.81824238598347 82.45725961588323,245.81830312870443 79.36609203368425,235.4546923385933 52.87036989629269,201.63642065180466 43.596867149695754,195.09091806411743 30.790601449087262,195.09091806411743 21.517098700627685,202.18187875160947 17.542740382254124,213.63648291118443 21.517098700627685,225.63651176262647 51.103988422080874,262.7272988189943 63.91025412082672,266.0 74.50854297541082,262.18184837931767 81.57406887970865,251.27282511396334 81.13247350975871,239.27286763349548 61.70227727666497,213.0910262609832 48.89601157605648,197.2727533634752 36.53134124726057,194.0 25.049861654639244,197.81821201601997 18.425931118428707,207.63645595684648 18.867526486516,220.18195733660832 46.68803473189473,258.36369337607175 56.84472821652889,265.4545499747619 68.76780317910016,264.90909988153726 79.36609203368425,256.72734019719064 82.45725961588323,245.27285054931417 77.1581151895225,232.72742219874635 49.33760694600642,197.81821201601997 35.6481505073607,194.0 24.608266284689307,198.36367060011253 17.98433574847877,209.81828490737826 19.30912185832858,221.81832438753918 51.98717915825546,263.27274918789044 64.35184949077666,266.0 76.71651982143521,260.000045934692" stroke="#4DD2FF" stroke-linecap="round" stroke-linejoin="round" stroke-width="0.5"><title>2025-03-09 10.0km</title><desc>13830708577</desc></polyline><polyline fill="none" points="137.35280446894467,264.54055497888476 154.98222854733467,265.02703671948984 165.71318233385682,257.2433209139854 168.3959207776934,247.0271681318991 165.32993398234248,203.24332460039295 154.59898019582033,194.9729826655239 146.5507648549974,194.0 136.58630776777864,199.35140137327835 131.60407922416925,211.51364735048264 133.52032097242773,253.8379399057012 139.2690462153405,262.1081452840008 148.08375825546682,266.0 158.81471204012632,264.0540731730871 166.09643068164587,256.7568381128367 168.01267242990434,248.00013632397167 163.03044388443232,200.81087308260612 153.4492351487279,194.48649136559106 143.1015297099948,194.9729826655239 133.90356932207942,202.7568344301544 131.60407922416925,211.51364735048264 133.52032097242773,253.35145663958974 140.41879126429558,263.0811093610246 151.14974505081773,266.0 161.1142021380365,262.5946273561567 167.62942408025265,252.86497330712155 166.86292738094926,208.59471209929325 161.88069883733988,199.35140137327835 150.00000000186265,194.0 139.2690462153405,197.40543816774152 131.98732757382095,207.62173315137625 132.37057592347264,236.3245004818309 133.52032097242773,253.8379399057012 138.5025495160371,261.6216631466523 151.91624174825847,266.0 161.49745048955083,262.1081452840008 167.62942408025265,252.86497330712155 167.62942408025265,230.00018176739104 166.09643068164587,206.1622642322909 159.58120874129236,196.9189472005237 148.85025495290756,194.0 138.1193011663854,197.8919290683698 132.37057592347264,206.64875393826514 132.75382427312434,248.97310425154865 136.96955611743033,259.6757339297328 146.5507648549974,265.513518393971 155.36547689512372,265.513518393971 165.32993398234248,257.72980365063995 168.01267242990434,248.48662032163702 166.09643068164587,206.1622642322909 159.58120874129236,196.9189472005237 148.08375825546682,194.0 136.96955611743033,198.8649106719531 131.98732757382095,208.1082226592116 132.75382427312434,248.97310425154865 135.81981106847525,258.2162863202393 145.4010198060423,265.513518393971 156.8984702937305,265.02703671948984 163.79694058559835,259.6757339297328 167.62942408025265,251.8920064412523 166.86292738094926,210.5406691986136 163.41369223594666,200.81087308260612 153.83248349651694,194.48649136559106 143.4847780596465,194.9729826655239 134.6700660213828,201.2973635189701 131.60407922416925,210.5406691986136 132.75382427312434,248.97310425154865 136.58630776777864,259.18925145990215 144.63452310860157,265.02703671948984 156.5152219440788,265.02703671948984 164.9466856326908,258.2162863202393 168.01267242990434,248.48662032163702 166.09643068164587,206.1622642322909 159.58120874129236,197.40543816774152 148.85025495290756,194.0 138.1193011663854,197.8919290683698 131.98732757382095,207.62173315137625 132.75382427312434,248.48662032163702 136.2030594199896,259.18925145990215 141.18528796173632,263.56759130000137 155.36547689512372,265.513518393971 163.79694058559835,259.6757339297328 168.01267242990434,248.00013632397167 165.71318233385682,205.18928462080657 158.81471204012632,196.9189472005237 148.4670066051185,194.0 140.03554291278124,196.43245616578497 134.28681767173111,202.27034419216216 131.60407922416925,211.51364735048264 133.90356932207942,254.3244231066201 140.80203961394727,263.56759130000137 150.00000000186265,266.0 162.64719553664327,261.1351809410844 167.62942408025265,252.37848990783095 166.47967903129756,208.1082226592116 163.03044388443232,200.32438257941976 152.6827384494245,194.48649136559106 142.71828136220574,195.45947389863431 134.6700660213828,201.7838538887445 131.60407922416925,212.48662523482926 133.52032097242773,254.3244231066201 140.41879126429558,263.0811093610246 151.91624174825847,266.0 162.64719553664327,261.1351809410844 166.86292738094926,254.3244231066201 166.47967903129756,208.1082226592116 163.03044388443232,200.81087308260612 154.59898019582033,194.9729826655239 142.3350330106914,195.45947389863431 134.6700660213828,201.7838538887445 131.60407922416925,211.51364735048264 132.75382427312434,249.45958811673336 136.58630776777864,259.18925145990215 145.0177714601159,265.513518393971 156.1319735944271,265.02703671948984 165.71318233385682,257.2433209139854 168.01267242990434,248.97310425154865 165.71318233385682,205.67577445926145 158.81471204012632,196.43245616578497 148.08375825546682,194.0 137.73605281673372,198.37841990380548 131.98732757382095,207.62173315137625 132.75382427312434,249.45958811673336 136.2030594199896,258.7027689225506 145.0177714601159,265.02703671948984 157.2817186433822,264.54055497888476 166.09643068164587,256.7568381128367 168.01267242990434,248.97310425154865 166.09643068164587,205.67577445926145 159.58120874129236,196.9189472005237 148.85025495290756,194.0 138.5025495160371,197.40543816774152 132.37057592347264,207.13524357858114 132.75382427312434,248.48662032163702 136.2030594199896,259.18925145990215 143.86802641116083,265.02703671948984 157.2817186433822,264.54055497888476 165.32993398234248,257.72980365063995 168.01267242990434,248.48662032163702 166.09643068164587,205.67577445926145 159.19796039164066,196.9189472005237 148.85025495290756,194.0 140.41879126429558,196.43245616578497 133.13707262277603,204.7027947162278 131.60407922416925,212.48662523482926 133.52032097242773,253.8379399057012 138.1193011663854,261.1351809410844 148.08375825546682,266.0 159.58120874129236,263.56759130000137 165.71318233385682,257.2433209139854 168.01267242990434,248.00013632397167 166.09643068164587,205.67577445926145 158.43146369233727,196.43245616578497 147.31726155430079,194.0 136.58630776777864,199.35140137327835 131.98732757382095,208.59471209929325 133.13707262277603,252.37848990783095 138.5025495160371,261.6216631466523 148.08375825546682,266.0 158.81471204012632,264.0540731730871 166.09643068164587,256.7568381128367 168.01267242990434,248.00013632397167 166.47967903129756,207.13524357858114 159.9644570890814,197.8919290683698 151.91624174825847,194.0 140.80203961394727,195.9459650644567 133.52032097242773,203.72981470567174 132.75382427312434,248.48662032163702 136.96955611743033,259.6757339297328 143.86802641116083,265.02703671948984 155.36547689512372,265.513518393971 165.32993398234248,257.72980365063995 168.01267242990434,248.48662032163702 164.1801889333874,201.7838538887445 158.04821534268558,196.43245616578497 147.70050990395248,194.0 140.03554291278124,196.43245616578497 134.28681767173111,202.7568344301544 131.60407922416925,212.48662523482926 133.90356932207942,254.3244231066201 138.8857978656888,261.6216631466523 149.2335033044219,266.0 161.1142021380365,262.5946273561567 166.86292738094926,255.297389307525 166.47967903129756,208.1082226592116 162.64719553664327,199.83789200964384 152.6827384494245,194.48649136559106 140.03554291278124,196.43245616578497 132.37057592347264,206.1622642322909 133.13707262277603,252.37848990783095 138.5025495160371,261.6216631466523 149.2335033044219,266.0 161.49745048955083,262.1081452840008 167.62942408025265,252.86497330712155 166.86292738094926,211.0271583085414 163.03044388443232,200.32438257941976 152.2994900997728,194.0 141.95178466290236,195.45947389863431 133.52032097242773,203.72981470567174 131.60407922416925,211.51364735048264 133.90356932207942,254.3244231066201 140.41879126429558,263.0811093610246 149.2335033044219,266.0 159.9644570890814,263.0811093610246 166.47967903129756,255.297389307525 168.01267242990434,248.00013632397167 165.71318233385682,204.7027947162278 156.1319735944271,195.45947389863431 143.86802641116083,194.9729826655239 135.0533143710345,201.2973635189701 131.60407922416925,212.0001363256015 132.75382427312434,250.91903931065463 136.58630776777864,259.18925145990215 145.78426815755665,265.513518393971 157.2817186433822,264.54055497888476 164.9466856326908,258.7027689225506 168.01267242990434,248.00013632397167 166.47967903129756,208.1082226592116 163.03044388443232,200.32438257941976 153.4492351487279,194.48649136559106 143.1015297099948,194.9729826655239 133.90356932207942,202.7568344301544 131.60407922416925,212.48662523482926 133.90356932207942,254.3244231066201 141.56853631325066,263.56759130000137 152.6827384494245,266.0 162.64719553664327,261.1351809410844 167.62942408025265,251.8920064412523 166.86292738094926,212.48662523482926 163.41369223594666,201.2973635189701 153.0659867990762,194.48649136559106 142.71828136220574,195.45947389863431 133.90356932207942,203.24332460039295 132.75382427312434,248.97310425154865 136.58630776777864,259.6757339297328 146.16751650720835,265.513518393971 152.6827384494245,266.0 165.32993398234248,258.2162863202393 168.01267242990434,248.48662032163702 165.71318233385682,205.67577445926145 158.81471204012632,196.9189472005237 147.70050990395248,194.0 137.73605281673372,197.8919290683698 131.98732757382095,207.62173315137625 132.75382427312434,248.48662032163702 136.96955611743033,259.6757339297328 148.08375825546682,266.0 159.19796039164066,264.0540731730871 165.71318233385682,257.2433209139854 168.01267242990434,246.5406839349307 165.32993398234248,204.7027947162278 157.6649669930339,195.9459650644567 146.5507648549974,194.0 136.58630776777864,199.35140137327835 131.98732757382095,209.08120147348382 133.90356932207942,254.3244231066201 141.95178466290236,264.0540731730871 152.2994900997728,266.0 163.41369223594666,260.1622163327411 168.01267242990434,251.40552290854976 165.71318233385682,204.7027947162278 157.2817186433822,195.9459650644567 145.0177714601159,194.48649136559106 135.0533143710345,200.81087308260612 131.60407922416925,213.45960285584442" stroke="#4DD2FF" stroke-linecap="round" stroke-linejoin="round" stroke-width="0.5"><title>2025-01-27 10.0km</title><desc>13464900069</desc></polyline></svg>