<?xml version="1.0" encoding="utf-8" ?>
<svg baseProfile="full" height="200mm" version="1.1" viewBox="0,0,200,200" width="200mm" xmlns="http://www.w3.org/2000/svg" xmlns:ev="http://www.w3.org/2001/xml-events" xmlns:xlink="http://www.w3.org/1999/xlink"><defs /><rect fill="#1a1a1a" height="200" width="200" x="0" y="0" /><text alignment-baseline="middle" fill="#e1ed5e" style="dominant-baseline: central; font-size:9.0px; font-family:Arial;" text-anchor="middle" x="100.0" y="100.0">2025</text><line stroke="#e1ed5e" stroke-width="0.3" x1="100.0" x2="100.0" y1="15.0" y2="10.0" /><path d="M 100.0 14.0 a86.0,86.0 0 0,1 42.46469731375804,11.215312516191453" fill="none" id="id1" stroke="none" /><text fill="#e1ed5e" style="font-size:6.75px; font-family:Arial;" text-anchor="middle"><textPath startOffset="22.20632615414155" xlink:href="#id1">January</textPath></text><path d="M 101.44485096284872 79.0497635885617 l 0.5127140733136573 -7.434317672609195 a28.45197658197094,28.45197658197094 0 0,0 0.4883034043892976,0.037901742147646876 l -0.640607667065296 7.424390668273084" fill="#ff4806" stroke="none" /><path d="M 102.16513564639614 79.11191278185805 l 0.7685914225423325 -7.4149648295258475 a28.45469222690722,28.45469222690722 0 0,0 0.4867558518708608,0.05469269147745791 l -0.8961139779229186 7.400636184577788" fill="#ff4806" stroke="none" /><path d="M 105.01212808612495 79.60689891045804 l 1.814467830981062 -7.382617775342356 a28.60232456071602,28.60232456071602 0 0,0 0.4771019074554675,0.12162389932750207 l -1.9412786271215545 7.3502908798459865" fill="#ff4a06" stroke="none" /><path d="M 106.0581310904928 79.89281104454417 l 3.549229935122829 -11.780041713503078 a33.30310594542063,33.30310594542063 0 0,0 0.5474628241201832,0.17009936436661638 l -3.7514781319537307 11.717202214253941" fill="#ff8c0c" stroke="none" /><path d="M 107.4271985657038 80.35727306442388 l 4.365721683055513 -11.54603288687719 a33.34384061946486,33.34384061946486 0 0,0 0.53511598249179,0.20761668768122762 l -4.5638208305469705 11.469173495305416" fill="#ff8d0d" stroke="none" /><path d="M 109.08828744355905 81.06846463323043 l 10.684225876873976 -22.255986214206267 a45.68768123892973,45.68768123892973 0 0,0 0.706045966938149,0.3464536896525812 l -11.065743110822556 22.068777364418853" fill="#d3ff1c" stroke="none" /><path d="M 110.05341064243156 81.56283822128135 l 5.909414221533666 -10.837399355799635 a33.34384061946486,33.34384061946486 0 0,0 0.5015483823576353,0.27911113176711216 l -6.095086692963337 10.734072826472342" fill="#ff8d0d" stroke="none" /><line stroke="#e1ed5e" stroke-width="0.3" x1="143.23703022742887" x2="145.7803849466894" y1="26.81831364943548" y2="22.513508569990506" /><path d="M 143.74570117128098 25.957352633546492 a86.0,86.0 0 0,1 28.547481713284135,27.462654790039103" fill="none" id="id2" stroke="none" /><text fill="#e1ed5e" style="font-size:6.75px; font-family:Arial;" text-anchor="middle"><textPath startOffset="19.985693538727396" xlink:href="#id2">February</textPath></text><path d="M 110.99172775467656 82.1063720568725 l 6.468324328132722 -10.529899532295401 a33.357912597771055,33.357912597771055 0 0,0 0.4866774065141454,0.3047573473112868 l -6.64862088701913 10.416997843661171" fill="#ff8d0d" stroke="none" /><path d="M 111.60114157652 82.49532879139004 l 9.882346175775977 -14.911223989088963 a38.88869382572848,38.88869382572848 0 0,0 0.5548033386118835,0.37460569081948236 l -10.137554208794402 14.738906385970811" fill="#ffd614" stroke="none" /><path d="M 113.06298171725822 83.55741782278167 l 1.5708564664384805 -1.9772619373649962 a23.525302913930123,23.525302913930123 0 0,0 0.31489917604031575,0.2546265672547962 l -1.6046590410432875 1.9499292728460704" fill="#ff0000" stroke="none" /><path d="M 114.42810811169701 84.74124197986012 l 5.302239833828178 -5.607498499650131 a28.717369155289433,28.717369155289433 0 0,0 0.35625504115813295,0.3427170673336247 l -5.397978118598729 5.515398345554204" fill="#ff4c07" stroke="none" /><path d="M 116.60985879189232 87.15038557335679 l 9.766431383943836 -7.5554451835076915 a33.347790648463096,33.347790648463096 0 0,0 0.3473316264375329,0.45704770663617994 l -9.895038950605482 7.386212700990478" fill="#ff8d0d" stroke="none" /><path d="M 117.45458315368197 88.32363383020206 l 5.56083205477665 -3.719957715897974 a27.690361615749957,27.690361615749957 0 0,0 0.26161242441526467,0.3984536705812203 l -5.62404111454984 3.6236859813390803" fill="#ff3d05" stroke="none" /><line stroke="#e1ed5e" stroke-width="0.3" x1="172.23445277983987" x2="176.4835382374775" y1="55.19839476539836" y2="52.563006222186495" /><path d="M 173.08426987136738 54.67131705675599 a86.0,86.0 0 0,1 12.851231095245387,41.99856678651699" fill="none" id="id3" stroke="none" /><text fill="#e1ed5e" style="font-size:6.75px; font-family:Arial;" text-anchor="middle"><textPath startOffset="22.20632615414155" xlink:href="#id3">March</textPath></text><path d="M 118.56541770881063 90.18545643968196 l 10.924137739565223 -5.775007456632431 a33.35667821370911,33.35667821370911 0 0,0 0.2639792981062816,0.509923981018319 l -11.02192647083162 5.586110753353767" fill="#ff8d0d" stroke="none" /><path d="M 119.196687751892 91.48605970444005 l 22.567700383903638 -10.009021147812525 a45.68768123892973,45.68768123892973 0 0,0 0.3126544876085935,0.7216496642289338 l -22.736645581354914 9.61907233899699" fill="#d3ff1c" stroke="none" /><path d="M 119.61058180528143 92.48833698450437 l 23.054275834225855 -8.830740100038756 a45.68768123892973,45.68768123892973 0 0,0 0.27498634621909995,0.7368266932573574 l -23.20286676894658 8.432590269752065" fill="#d3ff1c" stroke="none" /><path d="M 119.85752413597 93.16781622104841 l 11.668789409413378 -4.0147660492369734 a33.34013746727903,33.34013746727903 0 0,0 0.1820414470485437,0.5442807560024177 l -11.736168150233691 3.813312190312242" fill="#ff8d0c" stroke="none" /><path d="M 120.73433829027371 96.67025291283417 l 9.352828818727398 -1.5019796667698273 a30.472663291377337,30.472663291377337 0 0,0 0.07871249498884794,0.5186169956245464 l -9.377297207155545 1.3407635587531987" fill="#ff6509" stroke="none" /><path d="M 120.78858239683441 97.02765380044208 l 7.360090765981141 -1.0523438971960213 a28.434942081916077,28.434942081916077 0 0,0 0.06510789437415361,0.48512943773353034 l -7.377114659413131 0.9254961173978264" fill="#ff4806" stroke="none" /><line stroke="#e1ed5e" stroke-width="0.3" x1="184.98032266829074" x2="189.97916517819016" y1="98.17113171792111" y2="98.06355123074" /><path d="M 185.9800911702706 98.14961562048488 a86.0,86.0 0 0,1 -9.607161424134198,41.387399972396054" fill="none" id="id4" stroke="none" /><text fill="#e1ed5e" style="font-size:6.75px; font-family:Arial;" text-anchor="middle"><textPath startOffset="21.466115282336823" xlink:href="#id4">April</textPath></text><path d="M 120.81339534386255 102.79330883721812 l 8.836729464280408 1.1859532813784215 a29.915956079439475,29.915956079439475 0 0,0 -0.07288944202619976,0.5097885877648866 l -8.815005971237607 -1.3378873411237173" fill="#ff5d08" stroke="none" /><line stroke="#e1ed5e" stroke-width="0.3" x1="174.80103733775053" x2="179.2010983576182" y1="140.37084112569926" y2="142.7455964860345" /><path d="M 175.68104954172406 140.8457921977663 a86.0,86.0 0 0,1 -30.038265399797805,32.042727171017184" fill="none" id="id5" stroke="none" /><text fill="#e1ed5e" style="font-size:6.75px; font-family:Arial;" text-anchor="middle"><textPath startOffset="22.206326154141568" xlink:href="#id5">May</textPath></text><path d="M 118.48025628344425 109.97397251340804 l 45.979765190700284 24.81572263669545 a73.24900857407088,73.24900857407088 0 0,0 -0.6083978609336479,1.104418838699181 l -45.54579092031513 -25.603511993792438" fill="#3fffc1" stroke="none" /><path d="M 117.75023020441432 111.22182372390056 l 6.272692132208741 3.965641266130663 a28.421116980422276,28.421116980422276 0 0,0 -0.2649864991504102,0.411264931259807 l -6.2035007696812805 -4.073027797311923" fill="#ff4806" stroke="none" /><path d="M 117.35343817320211 111.8261652097733 l 6.149607821994029 4.190885826332814 a28.441854632662977,28.441854632662977 0 0,0 -0.27918943393350193,0.40219320251313656 l -6.076557480898391 -4.29612029103297" fill="#ff4806" stroke="none" /><path d="M 115.32070863581623 114.36230785411682 l 5.408728627524354 5.070380717656726 a28.4137106760506,28.4137106760506 0 0,0 -0.33757307927086655,0.35394402401611796 l -5.320648996874524 -5.162731858255351" fill="#ff4806" stroke="none" /><path d="M 114.81725581225074 114.88116024355365 l 8.709611626869643 8.747174775197296 a33.34384061946486,33.34384061946486 0 0,0 -0.4102087053339369,0.4014755556570407 l -8.557752969159912 -8.895800433776907" fill="#ff8d0d" stroke="none" /><path d="M 113.75828350139079 115.86535959552629 l 4.870887827535585 5.61686251962405 a28.434695205103687,28.434695205103687 0 0,0 -0.3725412530444344,0.31748773795434937 l -4.773481097914103 -5.699874647801345" fill="#ff4806" stroke="none" /><path d="M 112.92097659922987 116.55440617244103 l 13.683107027665422 17.530850682792554 a43.238663260027906,43.238663260027906 0 0,0 -0.5906633479831364,0.4528954680562091 l -13.37931495118879 -17.763785492676135" fill="#f1ff19" stroke="none" /><path d="M 111.1453310114006 117.79835938074945 l 6.557798373598288 10.47237198073393 a33.35618446008433,33.35618446008433 0 0,0 -0.48925707736193647,0.30054165725942783 l -6.376562096304043 -10.583702104821736" fill="#ff8d0d" stroke="none" /><line stroke="#e1ed5e" stroke-width="0.3" x1="143.8653032363475" x2="146.44561519142675" y1="172.8068346515853" y2="177.08958963109032" /><path d="M 144.38136562736335 173.6633856474863 a86.0,86.0 0 0,1 -40.68145358897372,12.25698825130547" fill="none" id="id6" stroke="none" /><text fill="#e1ed5e" style="font-size:6.75px; font-family:Arial;" text-anchor="middle"><textPath startOffset="21.466115282336833" xlink:href="#id6">June</textPath></text><path d="M 110.8373102113329 117.98757091392108 l 12.740383808799287 21.14625795169178 a45.68768123892973,45.68768123892973 0 0,0 -0.6771178237985116,0.40005314546678444 l -12.374498113972393 -21.362429669452315" fill="#d3ff1c" stroke="none" /><path d="M 110.21172684928248 118.3499491758327 l 12.004945588290777 21.572271238262804 a45.68768123892973,45.68768123892973 0 0,0 -0.6904870382787147,0.3765085875150733 l -11.631835738143414 -21.775720477537647" fill="#d3ff1c" stroke="none" /><path d="M 109.57404056367764 118.69057910512821 l 7.07439314061861 13.81073160658489 a36.51719516591689,36.51719516591689 0 0,0 -0.5619232819167634,0.2817599988890433 l -6.8356159510190855 -13.930459446383233" fill="#ffb711" stroke="none" /><path d="M 109.2508944713604 118.85261126421891 l 5.439107464255538 11.084482583319515 a33.347050018025925,33.347050018025925 0 0,0 -0.5174943409732028,0.2484287317464488 l -5.247500455282102 -11.176465591565524" fill="#ff8d0d" stroke="none" /><path d="M 107.93186726928326 119.44442032107085 l 9.351868821853156 22.925455253623014 a45.75952239133502,45.75952239133502 0 0,0 -0.7318885305542729,0.29123355076538443 l -8.955859215257018 -23.083035648794464" fill="#d3ff1c" stroke="none" /><path d="M 105.88484417918355 120.15858648285463 l 6.928622951062346 23.734060021527945 a45.72471276078812,45.72471276078812 0 0,0 -0.7574382103260853,0.21405960408393795 l -6.5190535726316545 -23.849808418950403" fill="#d3ff1c" stroke="none" /><path d="M 104.48393922423573 120.51570834832081 l 3.1153597522493004 14.253942544936596 a35.59041961220747,35.59041961220747 0 0,0 -0.599628302386206,0.1256579408418094 l -2.8695399884337163 -14.305456466504946" fill="#ffab0f" stroke="none" /><path d="M 103.41894727170886 120.7198165907248 l 4.022141168235643 24.37534734666792 a45.70496261579699,45.70496261579699 0 0,0 -0.7773415953083876,0.12140477034982897 l -3.601963709318738 -24.440970424364853" fill="#d3ff1c" stroke="none" /><path d="M 102.70371172650421 120.8252237178851 l 0.4614855387845191 3.55457258758218 a24.58440443908021,24.58440443908021 0 0,0 -0.4201270749428476,0.0508715379286841 l -0.40023104079029115 -3.561989654236215" fill="#ff1001" stroke="none" /><line stroke="#e1ed5e" stroke-width="0.3" x1="102.19456741930631" x2="102.32365962044197" y1="184.97166512339345" y2="189.96999836594603" /><path d="M 102.22038585953345 185.97133177190398 a86.0,86.0 0 0,1 -42.740103519485714,-10.115201625700543" fill="none" id="id7" stroke="none" /><text fill="#e1ed5e" style="font-size:6.75px; font-family:Arial;" text-anchor="middle"><textPath startOffset="22.20632615414155" xlink:href="#id7">July</textPath></text><path d="M 98.73552117531835 120.96189622390904 l -0.7432630989789771 12.321443146175973 a33.34384061946486,33.34384061946486 0 0,0 -0.5726205060014847,-0.03949126268529652 l 0.9552463657593919 -12.306823538974392" fill="#ff8d0d" stroke="none" /><path d="M 98.37488393609728 120.93702456842531 l -0.9560105628519996 12.316668997805575 a33.35371569196044,33.35371569196044 0 0,0 -0.5720252490901266,-0.04935674544821657 l 1.1678801296836678 -12.298388000078694" fill="#ff8d0d" stroke="none" /><path d="M 98.01472825383883 120.90594882070398 l -1.1676467403691824 12.295930288647819 a33.35124692383654,33.35124692383654 0 0,0 -0.5710486312556952,-0.05919152550663118 l 1.379127968230471 -12.274009394685427" fill="#ff8d0d" stroke="none" /><path d="M 96.93821686468263 120.77559828337769 l -3.5994440984498044 24.42387371276591 a45.68768123892973,45.68768123892973 0 0,0 -0.7770476768300805,-0.1213588663282562 l 4.019327638888402 -24.35829653909055" fill="#d3ff1c" stroke="none" /><path d="M 96.22490169976321 120.6578951692458 l -4.438020165803402 24.285501476455558 a45.68768123892973,45.68768123892973 0 0,0 -0.7724098311878684,-0.1480341824980433 l 4.855397611562966 -24.205510095609046" fill="#d3ff1c" stroke="none" /><path d="M 95.86986931433489 120.58985236759428 l -2.7335888553099497 13.627702183827893 a34.899164537517436,34.899164537517436 0 0,0 -0.587982019159734,-0.12321734895701444 l 2.9677623358990703 -13.578628854144338" fill="#ffa20e" stroke="none" /><path d="M 95.51606077576429 120.51570834832081 l -2.6377766836303644 12.06882038830165 a33.35371569196044,33.35371569196044 0 0,0 -0.5598339392521499,-0.12741638191096347 l 2.845130772275377 -12.021627272813" fill="#ff8d0d" stroke="none" /><path d="M 95.16358092515715 120.4354850818985 l -2.8604821973056405 12.086492168169906 a33.42037243130555,33.42037243130555 0 0,0 -0.5586719983175418,-0.13730798476426317 l 3.068107480366393 -12.035462925091613" fill="#ff8e0d" stroke="none" /><path d="M 94.46302465271185 120.25689768951611 l -2.1695462364035234 7.937235293096527 a29.22840415693528,29.22840415693528 0 0,0 -0.48417384820187254,-0.1368323657836993 l 2.30585125271001 -7.898714133974306" fill="#ff5307" stroke="none" /><path d="M 94.11515582081647 120.15858648285463 l -6.9182455826882965 23.698512253148227 a45.68768123892973,45.68768123892973 0 0,0 -0.7530309445995453,-0.22688204640081205 l 7.3251515017280875 -23.57591483764169" fill="#d3ff1c" stroke="none" /><path d="M 93.76903079525671 120.05430185196036 l -2.199742995968945 7.0798472257438005 a28.4137106760506,28.4137106760506 0 0,0 -0.4658206710726613,-0.14914106874551247 l 2.321285012132547 -7.040933310338582" fill="#ff4806" stroke="none" /><path d="M 92.7421414339146 119.70592522655815 l -2.8446910269286243 7.723665067167525 a29.230872925059174,29.230872925059174 0 0,0 -0.47065850519688,-0.17796277401806915 l 2.9772197528857873 -7.673554043042823" fill="#ff5307" stroke="none" /><path d="M 92.06813273071674 119.44442032107085 l -11.196207929324743 27.446724155731975 a50.64249886358293,50.64249886358293 0 0,0 -0.8043199396843923,-0.33620580002035577 l 11.666999328506598 -27.249933312691645" fill="#9aff23" stroke="none" /><path d="M 90.10565033884886 118.52300852407294 l -3.331357755404273 6.236566344766785 a28.070551906829476,28.070551906829476 0 0,0 -0.4242358492135671,-0.23132721036855103 l 3.4382164164864806 -6.178298482638468" fill="#ff4306" stroke="none" /><line stroke="#e1ed5e" stroke-width="0.3" x1="58.666819895761336" x2="56.23545636021788" y1="174.27360380694188" y2="178.64263932499728" /><path d="M 58.180547188652646 175.14741091055294 a86.0,86.0 0 0,1 -31.652253787137756,-30.449443065178592" fill="none" id="id8" stroke="none" /><text fill="#e1ed5e" style="font-size:6.75px; font-family:Arial;" text-anchor="middle"><textPath startOffset="22.20632615414155" xlink:href="#id8">August</textPath></text><path d="M 83.50135304334701 112.99209946851258 l -10.986210490917346 8.651251211994564 a34.983596407354575,34.983596407354575 0 0,0 -0.3684825254524431,-0.4763133360915823 l 11.133499833587857 -8.46085988178973" fill="#ffa30f" stroke="none" /><path d="M 83.28015986056508 112.70617746262583 l -9.840337596993555 7.478126271354107 a33.35939385864539,33.35939385864539 0 0,0 -0.3435044319911066,-0.4601803213440885 l 9.967603295679748 -7.30763307050071" fill="#ff8d0d" stroke="none" /><path d="M 83.06392112726016 112.41649034213515 l -11.217361518059185 8.223878856481035 a34.90903961001301,34.90903961001301 0 0,0 -0.35111879020929004,-0.48767328988347247 l 11.357260100644083 -8.029571961146424" fill="#ffa20e" stroke="none" /><path d="M 82.6465618267979 111.8261652097733 l -15.051279388637054 10.25727091610876 a39.214077464457574,39.214077464457574 0 0,0 -0.37532894259709676,-0.5610658438829954 l 15.225611436644881 -9.996668158019943" fill="#ffda14" stroke="none" /><path d="M 82.44556493220864 111.52570212397912 l -11.090356998092874 7.281587286345413 a34.26715989780084,34.26715989780084 0 0,0 -0.319492535898597,-0.4958595107133155 l 11.214054397368516 -7.089606175710649" fill="#ff990e" stroke="none" /><path d="M 82.05923443525364 110.91462005526583 l -27.25620092557847 16.581849652906914 a52.90389046506889,52.90389046506889 0 0,0 -0.46661010781412954,-0.7820653800597389 l 27.53759190909083 -16.110222178961063" fill="#81ff25" stroke="none" /><line stroke="#e1ed5e" stroke-width="0.3" x1="26.63291911575756" x2="22.317208475507996" y1="142.92168965132927" y2="145.44649492493687" /><path d="M 25.769776987707644 143.4266507060508 a86.0,86.0 0 0,1 -11.730757126820373,-40.83630448921669" fill="none" id="id9" stroke="none" /><text fill="#e1ed5e" style="font-size:6.75px; font-family:Arial;" text-anchor="middle"><textPath startOffset="21.46611528233685" xlink:href="#id9">September</textPath></text><path d="M 81.69416730710424 110.29060199501025 l -14.721034907882041 8.275412199656833 a37.88760835148988,37.88760835148988 0 0,0 -0.31469012790293205,-0.5712539900704081 l 14.861301445236489 -8.020787691188602" fill="#ffc912" stroke="none" /><path d="M 81.51974371655577 109.97397251340807 l -12.897971554722607 6.961159617725092 a35.6565825979278,35.6565825979278 0 0,0 -0.2868614378662894,-0.542633733887574 l 13.015885500813782 -6.738110868751392" fill="#ffac0f" stroke="none" /><path d="M 81.35079622478065 109.6543875284942 l -12.055391726742476 6.240878964088949 a34.57501528285029,34.57501528285029 0 0,0 -0.2690616661754072,-0.5308841932509702 l 12.16103206270415 -6.032440559135294" fill="#ff9d0e" stroke="none" /><path d="M 81.02952815118164 109.00673069616217 l -16.476540356804016 7.8226710954174274 a39.239258899321285,39.239258899321285 0 0,0 -0.2844386295652582,-0.6126555032351498 l 16.6087536032091 -7.53789552490345" fill="#ffdb14" stroke="none" /><path d="M 80.87730276802145 108.67885076344099 l -33.7997577726379 15.340045914580859 a58.117928742730854,58.117928742730854 0 0,0 -0.40560479019997164,-0.9145317253635418 l 34.05880364756916 -14.755965852724621" fill="#49ff2c" stroke="none" /><path d="M 80.58989483394504 108.01547362559985 l -16.42710634008217 6.7836333954605985 a38.772661723905514,38.772661723905514 0 0,0 -0.2494326303420133,-0.6190713326877421 l 16.54144158468157 -6.4998626949300515" fill="#ffd513" stroke="none" /><path d="M 80.45479744820244 107.68017299344265 l -16.848649633003827 6.6205783001963585 a39.102736022070005,39.102736022070005 0 0,0 -0.24077178339040975,-0.628579150161666 l 16.960115695987746 -6.329575583201535" fill="#ffd914" stroke="none" /><path d="M 80.20201598880116 107.00284435728193 l -17.498997929549795 6.189658443997073 a39.56143313948932,39.56143313948932 0 0,0 -0.22156129896335064,-0.643960845332626 l 17.602950059456372 -5.887524895575151" fill="#ffdf14" stroke="none" /><path d="M 80.0844068197444 106.66101706037122 l -22.802241300666026 7.626492314023477 a45.043826512218445,45.043826512218445 0 0,0 -0.23960687929973867,-0.7374341478147469 l 22.930140430982014 -7.2328592662309275" fill="#dbff1b" stroke="none" /><path d="M 79.97269907076064 106.31721596034903 l -36.38751851905978 11.477723012115879 a59.1548113547659,59.1548113547659 0 0,0 -0.2979521580373617,-0.9737248918625917 l 36.57969744960327 -10.849671147701239" fill="#3fff2d" stroke="none" /><path d="M 79.76711848015287 105.62410040840567 l -14.907783860405875 4.143891873013136 a36.473004216499206,36.473004216499206 0 0,0 -0.1629334612925879,-0.6063360222050796 l 14.976905398040238 -3.886664917632518" fill="#ffb710" stroke="none" /><path d="M 79.67330655649465 105.27499134158121 l -18.65810567976038 4.841975217690418 a40.27614151135633,40.27614151135633 0 0,0 -0.168370929930867,-0.6725581697392247 l 18.7386879239863 -4.520089208553802" fill="#ffe815" stroke="none" /><path d="M 79.50377843672027 104.57218783832718 l -14.489791256342306 3.2323053865127456 a35.845937113030395,35.845937113030395 0 0,0 -0.12915796616574712,-0.6033830190254047 l 14.543283261232494 -2.982408548071177" fill="#ffae10" stroke="none" /><path d="M 79.35854240842038 103.8639653848113 l -28.190018281586187 5.2770137163996145 a49.67967929526467,49.67967929526467 0 0,0 -0.15011201879679473,-0.8419079205129566 l 28.27667674272217 -4.790987045153444" fill="#a5ff21" stroke="none" /><path d="M 79.23777060512086 103.15116336523772 l -14.835766106708125 2.2516812506765125 a36.00566641064627,36.00566641064627 0 0,0 -0.08772686146097532,-0.6135614647339507 l 14.8723270191857 -1.9959743139621613" fill="#ffb010" stroke="none" /><path d="M 79.18660465613746 102.79330883721812 l -20.909147989495157 2.806159537779647 a42.09661112591501,42.09661112591501 0 0,0 -0.0902039984042151,-0.7190146197872789 l 20.95435349714622 -2.44582716370496" fill="#ffff18" stroke="none" /><path d="M 79.1416061653843 102.43462659150553 l -14.842687494818973 1.7324632927547123 a35.943453453924164,35.943453453924164 0 0,0 -0.0664401018659716,-0.6151528274049275 l 14.870309898185997 -1.4767141434650028" fill="#ffb010" stroke="none" /><path d="M 79.07016306316243 101.71520430193888 l -22.344471745239908 1.831133905994878 a43.41937708669687,43.41937708669687 0 0,0 -0.05463282682292556,-0.7454215160157733 l 22.372681130727166 -1.4462392534823438" fill="#efff19" stroke="none" /><path d="M 79.0235259727143 100.99374915477108 l -45.201824018388045 2.1414120578107756 a66.2525197109582,66.2525197109582 0 0,0 -0.04416161758034234,-1.1396151220119888 l 45.23198776881959 -1.3630196887847903" fill="#36ff72" stroke="none" /><line stroke="#e1ed5e" stroke-width="0.3" x1="15.007084014347285" x2="10.007500721073583" y1="101.09737516637583" y2="101.16192664675087" /><path d="M 14.007167355692545 101.11028546245083 a86.0,86.0 0 0,1 10.666146001902534,-42.60595125391555" fill="none" id="id10" stroke="none" /><text fill="#e1ed5e" style="font-size:6.75px; font-family:Arial;" text-anchor="middle"><textPath startOffset="22.20632615414155" xlink:href="#id10">October</textPath></text><path d="M 79.00175016825051 100.2711162175752 l -23.891487218829386 0.3084718821290303 a44.893478533473356,44.893478533473356 0 0,0 -0.003325757439912514,-0.7727889038246372 l 23.8932572735588 0.10282649989928225" fill="#ddff1b" stroke="none" /><path d="M 79.00019446554 99.90962569577889 l -14.514740896041827 -0.062465321751530745 a35.51487530761634,35.51487530761634 0 0,0 0.007892746203612628,-0.6113018915812738 l 14.5115151427205 0.3123034713932765" fill="#ffaa0f" stroke="none" /><path d="M 79.01574976396665 99.18683210126434 l -12.240840047870293 -0.47434900311060635 a33.25002743075693,33.25002743075693 0 0,0 0.02708514264178282,-0.5717245528441244 l 12.23086129699501 0.6849846625777398" fill="#ff8b0c" stroke="none" /><path d="M 79.03285615573316 98.82574320788736 l -57.985423920804024 -3.2474512689124926 a79.07628885370787,79.07628885370787 0 0,0 0.08781011055394176,-1.3583835445945576 l 57.92093321924567 4.245093877760062" fill="#47fffd" stroke="none" /><path d="M 79.08570108090925 98.10471618934814 l -21.975798674565407 -1.9914784432974446 a43.065849491355394,43.065849491355394 0 0,0 0.073258853750845,-0.7377066596686047 l 21.938262695132334 2.3694606336704798" fill="#f3ff19" stroke="none" /><path d="M 79.12142395522702 97.74499172005258 l -25.29846426479402 -2.7323820486956403 a46.445593052964874,46.445593052964874 0 0,0 0.09269135282803433,-0.7941229053753495 l 25.2476825589624 3.1674486923958516" fill="#caff1d" stroke="none" /><path d="M 79.21141760316559 97.0276538004421 l -25.649119603549174 -3.667304567493004 a46.909968337069145,46.909968337069145 0 0,0 0.12117092005880654,-0.7983649676822557 l 25.582192790051067 4.1082686475673516" fill="#c5ff1e" stroke="none" /><path d="M 79.26566170972629 96.67025291283419 l -17.586828232243466 -2.824285456279448 a38.8121620138878,38.8121620138878 0 0,0 0.11160924830448553,-0.6587241013303898 l 17.535607122418757 3.126595345925666" fill="#ffd513" stroke="none" /><path d="M 79.32604984820605 96.31383870115002 l -37.77410387489184 -6.735115388206695 a59.36984105835698,59.36984105835698 0 0,0 0.18804485712300903,-1.0045431459808043 l 37.65257329385897 7.384336611650071" fill="#3dff2e" stroke="none" /><path d="M 79.46518482838121 95.60439243477599 l -18.572730754132156 -3.975610938177059 a39.99346756117059,39.99346756117059 0 0,0 0.14989097049124078,-0.6719318300465017 l 18.50154539663888 4.29472093777352" fill="#ffe415" stroke="none" /><path d="M 79.54389044137918 95.25157060432595 l -29.277820833940293 -6.796192828883796 a51.05626440114739,51.05626440114739 0 0,0 0.20609031249660537,-0.8543773965174188 l 29.156497721182873 7.299155457060611" fill="#95ff23" stroke="none" /><path d="M 79.71946130924805 94.55025226153421 l -17.307535760040718 -4.65084805216288 a38.92152844177626,38.92152844177626 0 0,0 0.17943423156864763,-0.6455204004728005 l 17.224914757905708 4.948079756054622" fill="#ffd714" stroke="none" /><path d="M 79.91906864156998 93.8553929516997 l -60.24279407529007 -18.433821144900918 a84.0,84.0 0 0,0 0.4349780649271846,-1.378999334294342 l 59.91656052659468 19.468070645621676" fill="#4dd2ff" stroke="none" /><path d="M 80.95270993114464 91.15688171328213 l -13.435240733866662 -6.237602440589751 a35.81260874335784,35.81260874335784 0 0,0 0.2644024544194705,-0.5568990000400806 l 13.325880085605439 6.467943856270364" fill="#ffae10" stroke="none" /><path d="M 81.10775173730289 90.83032412892265 l -16.15540862378233 -7.841303935085105 a38.95781933319749,38.95781933319749 0 0,0 0.29800874252610143,-0.6007674401926566 l 16.018039868302814 8.118230963776723" fill="#ffd714" stroke="none" /><path d="M 81.6062741919709 89.86733742301443 l -13.337736118842304 -7.347439069365098 a36.227608664984245,36.227608664984245 0 0,0 0.30559257377381366,-0.5436150898079057 l 13.209285903776061 7.575937669107788" fill="#ffb310" stroke="none" /><line stroke="#e1ed5e" stroke-width="0.3" x1="26.266209847984243" x2="21.928928074336255" y1="57.711370442889674" y2="55.22380399835377" /><path d="M 25.398753493254645 57.213857153982495 a86.0,86.0 0 0,1 29.58750427330803,-30.492523968695096" fill="none" id="id11" stroke="none" /><text fill="#e1ed5e" style="font-size:6.75px; font-family:Arial;" text-anchor="middle"><textPath startOffset="21.46611528233685" xlink:href="#id11">November</textPath></text><path d="M 81.78341655067845 89.55222093294921 l -22.65758416075465 -12.994831559015 a47.119566750787655,47.119566750787655 0 0,0 0.40958195492885857,-0.7001083289147992 l 22.430542531355464 13.382919300283689" fill="#c2ff1e" stroke="none" /><path d="M 81.96595687620814 89.24020034530311 l -21.45954172990359 -12.803583096169328 a45.98887095004467,45.98887095004467 0 0,0 0.4114563002936824,-0.6763259725330848 l 21.23596963132369 13.171076841909487" fill="#d0ff1d" stroke="none" /><path d="M 82.34701348167596 88.62581576622439 l -19.044746459082074 -12.27092394175298 a43.65563819615342,43.65563819615342 0 0,0 0.41244883351019673,-0.6281878699240071 l 18.83070099021396 12.596929875654654" fill="#ecff1a" stroke="none" /><path d="M 82.54541684631803 88.32363383020206 l -20.20695562458249 -13.517585093386309 a45.311440976848445,45.311440976848445 0 0,0 0.4392524194372026,-0.6445487246223833 l 19.971278739476546 13.863411841279108" fill="#d8ff1c" stroke="none" /><path d="M 82.7489923806493 88.02491185347247 l -12.3330900319244 -8.561229784959853 a36.01331959183034,36.01331959183034 0 0,0 0.3578821579897494,-0.5061989323138291 l 12.183895254130771 8.772255217605467" fill="#ffb110" stroke="none" /><path d="M 82.95767976084542 87.72973835380427 l -20.894319506652263 -15.0436538961876 a46.74653588726743,46.74653588726743 0 0,0 0.47578487878962955,-0.6489700399712591 l 20.632272015349 15.401086379830359" fill="#c7ff1e" stroke="none" /><path d="M 83.39014120810768 87.1503855733568 l -39.29887330993619 -30.40214704779251 a70.68593350784519,70.68593350784519 0 0,0 0.7527914565921652,-0.955968702702722 l 38.76972777275005 31.07410814444828" fill="#3cffa5" stroke="none" /><path d="M 83.84228863543731 86.58626213691792 l -14.164622197620261 -11.759123851239446 a39.4096038998699,39.4096038998699 0 0,0 0.4378020150721946,-0.5182194959814554 l 13.960109569060943 12.001202296850018" fill="#ffdd14" stroke="none" /><path d="M 84.31358615837235 86.03803664274999 l -13.40771985480564 -11.933772448377901 a38.94942552157625,38.94942552157625 0 0,0 0.45006313319819985,-0.49697095266468455 l 13.200313080991396 12.162796188312143" fill="#ffd714" stroke="none" /><path d="M 85.31137513191541 84.99185889309783 l -10.873662256179209 -11.110193020458999 a36.54583287615405,36.54583287615405 0 0,0 0.4533715162084743,-0.4361430393867661 l 10.680807496358307 11.295719146608079" fill="#ffb811" stroke="none" /><path d="M 85.57189188830299 84.74124197986013 l -12.519290463692396 -13.24004660142918 a39.22173064564164,39.22173064564164 0 0,0 0.4945526218517902,-0.4596327637194221 l 12.28952995804575 13.45358395122325" fill="#ffda14" stroke="none" /><line stroke="#e1ed5e" stroke-width="0.3" x1="56.762969772571076" x2="54.21961505331055" y1="26.818313649435495" y2="22.513508569990535" /><path d="M 56.25429882871897 25.957352633546506 a86.0,86.0 0 0,1 42.265352541879196,-11.944610805530505" fill="none" id="id12" stroke="none" /><text fill="#e1ed5e" style="font-size:6.75px; font-family:Arial;" text-anchor="middle"><textPath startOffset="22.20632615414155" xlink:href="#id12">December</textPath></text></svg>