<?xml version="1.0" encoding="utf-8" ?>
<svg baseProfile="full" height="200mm" version="1.1" viewBox="0,0,200,200" width="200mm" xmlns="http://www.w3.org/2000/svg" xmlns:ev="http://www.w3.org/2001/xml-events" xmlns:xlink="http://www.w3.org/1999/xlink"><defs /><rect fill="#1a1a1a" height="200" width="200" x="0" y="0" /><text alignment-baseline="middle" fill="#e1ed5e" style="dominant-baseline: central; font-size:9.0px; font-family:Arial;" text-anchor="middle" x="100.0" y="100.0">2025</text><line stroke="#e1ed5e" stroke-width="0.3" x1="100.0" x2="100.0" y1="15.0" y2="10.0" /><path d="M 100.0 14.0 a86.0,86.0 0 0,1 42.46469731375804,11.215312516191453" fill="none" id="id1" stroke="none" /><text fill="#e1ed5e" style="font-size:6.75px; font-family:Arial;" text-anchor="middle"><textPath startOffset="22.20632615414155" xlink:href="#id1">January</textPath></text><path d="M 101.44485096284872 79.0497635885617 l 0.6182124312075485 -8.964036374209956 a29.98532886032886,29.98532886032886 0 0,0 0.5146193664980501,0.03994436728858894 l -0.7724219870679397 8.952066744732903" fill="#ff5708" stroke="none" /><path d="M 102.16513564639614 79.11191278185805 l 0.9267402567365939 -8.940701402934426 a29.988603288603287,29.988603288603287 0 0,0 0.512995467452574,0.0576410180234703 l -1.080502427698893 8.923424431440354" fill="#ff5708" stroke="none" /><path d="M 105.01212808612495 79.60689891045804 l 2.1878209074484753 -8.901698473133932 a30.166613116613117,30.166613116613117 0 0,0 0.5031950682489195,0.12827562700221348 l -2.3407248643824197 8.86271984996285" fill="#ff5a08" stroke="none" /><path d="M 106.0581310904928 79.89281104454417 l 4.279535478567968 -14.2039561745673 a35.83464845964846,35.83464845964846 0 0,0 0.5890783243828561,0.1830295028721041 l -4.523399175661542 14.128186536812677" fill="#ffa90f" stroke="none" /><path d="M 107.4271985657038 80.35727306442388 l 5.264032247474818 -13.921796637386207 a35.88376488376488,35.88376488376488 0 0,0 0.5758777556677396,0.22343162240135442 l -5.502893168142224 13.829122311094306" fill="#ffa90f" stroke="none" /><path d="M 109.08828744355905 81.06846463323043 l 12.882660333905294 -26.835478217874073 a50.767529767529766,50.767529767529766 0 0,0 0.7845486720222201,0.38497462610382993 l -13.342680272937946 26.609748431635413" fill="#9cff22" stroke="none" /><path d="M 110.05341064243156 81.56283822128135 l 7.125361918185283 -13.06735147801832 a35.88376488376488,35.88376488376488 0 0,0 0.5397531866754358,0.3003720640065041 l -7.349239193932754 12.942764016451637" fill="#ffa90f" stroke="none" /><line stroke="#e1ed5e" stroke-width="0.3" x1="143.23703022742887" x2="145.7803849466894" y1="26.81831364943548" y2="22.513508569990506" /><path d="M 143.74570117128098 25.957352633546492 a86.0,86.0 0 0,1 28.547481713284135,27.462654790039103" fill="none" id="id2" stroke="none" /><text fill="#e1ed5e" style="font-size:6.75px; font-family:Arial;" text-anchor="middle"><textPath startOffset="19.985693538727396" xlink:href="#id2">February</textPath></text><path d="M 110.99172775467656 82.1063720568725 l 7.799275886635479 -12.696579105308064 a35.900732375732375,35.900732375732375 0 0,0 0.5237760388444485,0.32798850747308744 l -8.016671077852191 12.560446256512034" fill="#ffa90f" stroke="none" /><path d="M 111.60114157652 82.49532879139004 l 11.915782252428277 -17.9794246235477 a42.569552069552074,42.569552069552074 0 0,0 0.6073160933930516,0.4100625372596133 l -12.223503040227872 17.771650173989418" fill="#feff18" stroke="none" /><path d="M 113.06298171725822 83.55741782278167 l 1.8940829708821727 -2.384112262673874 a24.04492061992062,24.04492061992062 0 0,0 0.3218545460974417,0.26025065946076004 l -1.9348409155441055 2.3511555059489844" fill="#ff0000" stroke="none" /><path d="M 114.42810811169701 84.74124197986012 l 6.393252592680709 -6.761322657005848 a30.305329805329805,30.305329805329805 0 0,0 0.3759545820066869,0.3616680100220079 l -6.508690418299815 6.6502715602215385" fill="#ff5c08" stroke="none" /><path d="M 116.60985879189232 87.15038557335679 l 11.776016310743994 -9.110087627522965 a35.88852768852769,35.88852768852769 0 0,0 0.37379449882924226,0.4918697447606347 l -11.93108674979735 8.906033106881297" fill="#ffa90f" stroke="none" /><path d="M 117.45458315368197 88.32363383020206 l 6.70505391416719 -4.485392976774582 a29.06700056700057,29.06700056700057 0 0,0 0.27461860535933413,0.41826297646182287 l -6.781269154884449 4.369311936335086" fill="#ff4a06" stroke="none" /><line stroke="#e1ed5e" stroke-width="0.3" x1="172.23445277983987" x2="176.4835382374775" y1="55.19839476539836" y2="52.563006222186495" /><path d="M 173.08426987136738 54.67131705675599 a86.0,86.0 0 0,1 12.851231095245387,41.99856678651699" fill="none" id="id3" stroke="none" /><text fill="#e1ed5e" style="font-size:6.75px; font-family:Arial;" text-anchor="middle"><textPath startOffset="22.20632615414155" xlink:href="#id3">March</textPath></text><path d="M 118.56541770881063 90.18545643968196 l 13.171937542450245 -6.963299011732738 a35.899243999244,35.899243999244 0 0,0 0.2841007480646501,0.5487922178089978 l -13.289847723675011 6.735534071663396" fill="#ffa90f" stroke="none" /><path d="M 119.196687751892 91.48605970444005 l 27.21133209963902 -12.068522437478657 a50.767529767529766,50.767529767529766 0 0,0 0.3474174126634418,0.8018872881483204 l -27.41504022214514 11.598336004743734" fill="#9cff22" stroke="none" /><path d="M 119.61058180528143 92.48833698450437 l 27.79802750701393 -10.647792972258033 a50.767529767529766,50.767529767529766 0 0,0 0.3055610864629959,0.8187517963065202 l -27.977193181978553 10.16771803892218" fill="#9cff22" stroke="none" /><path d="M 119.85752413597 93.16781622104841 l 14.069812095111415 -4.8408624011183345 a35.87929975429975,35.87929975429975 0 0,0 0.19590560035247023,0.5857328097184173 l -14.151054989235655 4.597956488477603" fill="#ffa90f" stroke="none" /><path d="M 120.73433829027371 96.67025291283417 l 11.277309018112867 -1.811033770571058 a32.42180117180117,32.42180117180117 0 0,0 0.08374722084061974,0.5517895484118652 l -11.306812132392785 1.6166451097671106" fill="#ff7a0b" stroke="none" /><path d="M 120.78858239683441 97.02765380044208 l 8.874536204825153 -1.2688789190968544 a29.964789264789264,29.964789264789264 0 0,0 0.06861080739237461,0.5112302084510307 l -8.895063011275363 1.1159303685811592" fill="#ff5708" stroke="none" /><line stroke="#e1ed5e" stroke-width="0.3" x1="184.98032266829074" x2="189.97916517819016" y1="98.17113171792111" y2="98.06355123074" /><path d="M 185.9800911702706 98.14961562048488 a86.0,86.0 0 0,1 -9.607161424134198,41.387399972396054" fill="none" id="id4" stroke="none" /><text fill="#e1ed5e" style="font-size:6.75px; font-family:Arial;" text-anchor="middle"><textPath startOffset="21.466115282336823" xlink:href="#id4">April</textPath></text><path d="M 120.81339534386255 102.79330883721812 l 10.655014735072708 1.429980372181046 a31.750543375543376,31.750543375543376 0 0,0 -0.07735936583563041,0.5410512244771722 l -10.628821318220476 -1.6131770686386275" fill="#ff700a" stroke="none" /><line stroke="#e1ed5e" stroke-width="0.3" x1="174.80103733775053" x2="179.2010983576182" y1="140.37084112569926" y2="142.7455964860345" /><path d="M 175.68104954172406 140.8457921977663 a86.0,86.0 0 0,1 -30.038265399797805,32.042727171017184" fill="none" id="id5" stroke="none" /><text fill="#e1ed5e" style="font-size:6.75px; font-family:Arial;" text-anchor="middle"><textPath startOffset="22.206326154141568" xlink:href="#id5">May</textPath></text><path d="M 118.48025628344425 109.97397251340804 l 55.44076885033275 29.921917540224147 a84.0,84.0 0 0,0 -0.6976943621939617,1.2665179264087798 l -54.91749807868728 -30.871805985030733" fill="#4dd2ff" stroke="none" /><path d="M 117.75023020441432 111.22182372390056 l 7.563389528605578 4.781629481295369 a29.94811944811945,29.94811944811945 0 0,0 -0.2792236256640459,0.4333612677740837 l -7.479961039564482 -4.911112348990906" fill="#ff5708" stroke="none" /><path d="M 117.35343817320211 111.8261652097733 l 7.41497883613217 5.053221377103658 a29.973124173124173,29.973124173124173 0 0,0 -0.29422060126497446,0.42384672013155655 l -7.326897327705059 -5.180109359422235" fill="#ff5708" stroke="none" /><path d="M 115.32070863581623 114.36230785411682 l 6.521653000381236 6.113685100063242 a29.93918918918919,29.93918918918919 0 0,0 -0.35569674093944925,0.3729466108181824 l -6.415449708062822 -6.225038827463932" fill="#ff5708" stroke="none" /><path d="M 114.81725581225074 114.88116024355365 l 10.501740558673268 10.547032869651519 a35.88376488376488,35.88376488376488 0 0,0 -0.44145582698364094,0.4320574408385988 l -10.318634779313832 -10.72624041341269" fill="#ffa90f" stroke="none" /><path d="M 113.75828350139079 115.86535959552629 l 5.87314365400279 6.7726134599216685 a29.964491589491587,29.964491589491587 0 0,0 -0.3925841006231354,0.33456868748121055 l -5.755694076802608 -6.872706537625826" fill="#ff5708" stroke="none" /><path d="M 112.92097659922987 116.55440617244103 l 16.49860478253583 21.138077509168706 a47.814590814590815,47.814590814590815 0 0,0 -0.6531729744545229,0.5008251840872531 l -16.132303079587814 -21.418942035083333" fill="#beff1f" stroke="none" /><path d="M 111.1453310114006 117.79835938074945 l 7.907160514845019 12.627214425531704 a35.898648648648646,35.898648648648646 0 0,0 -0.5265490703859858,0.3234494452190563 l -7.688632244526724 -12.761452337579138" fill="#ffa90f" stroke="none" /><line stroke="#e1ed5e" stroke-width="0.3" x1="143.8653032363475" x2="146.44561519142675" y1="172.8068346515853" y2="177.08958963109032" /><path d="M 144.38136562736335 173.6633856474863 a86.0,86.0 0 0,1 -40.68145358897372,12.25698825130547" fill="none" id="id6" stroke="none" /><text fill="#e1ed5e" style="font-size:6.75px; font-family:Arial;" text-anchor="middle"><textPath startOffset="21.466115282336833" xlink:href="#id6">June</textPath></text><path d="M 110.8373102113329 117.98757091392108 l 15.361902586466984 25.49740726789039 a50.767529767529766,50.767529767529766 0 0,0 -0.7524041129608702,0.44453361213204495 l -14.920730602477732 -25.758059452316186" fill="#9cff22" stroke="none" /><path d="M 110.21172684928248 118.3499491758327 l 14.475137283995213 26.011078967821813 a50.767529767529766,50.767529767529766 0 0,0 -0.7672598021901558,0.41837121968262625 l -14.025254669936409 -26.25639083926421" fill="#9cff22" stroke="none" /><path d="M 109.57404056367764 118.69057910512821 l 8.53005214878181 16.65248996986007 a39.71008316008316,39.71008316008316 0 0,0 -0.6110551523225471,0.3063957386714018 l -8.242143088776501 -16.796853549440772" fill="#ffdc14" stroke="none" /><path d="M 109.2508944713604 118.85261126421891 l 6.558282723438116 13.365275663731532 a35.88763466263467,35.88763466263467 0 0,0 -0.5569202624756371,0.26735556997692134 l -6.327249792962246 -13.476185510208014" fill="#ffa90f" stroke="none" /><path d="M 107.93186726928326 119.44442032107085 l 11.27615148795626 27.642700223311042 a50.85415327915328,50.85415327915328 0 0,0 -0.8133732515335239,0.32365800289601404 l -10.798657160380872 -27.832705070613123" fill="#9bff22" stroke="none" /><path d="M 105.88484417918355 120.15858648285463 l 8.354287628216301 28.61768715164276 a50.81218106218106,50.81218106218106 0 0,0 -0.8417130510551524,0.23787651587260342 l -7.860443409056543 -28.75725246085388" fill="#9bff22" stroke="none" /><path d="M 104.48393922423573 120.51570834832081 l 3.7563902119495114 17.18689798789114 a38.592610092610094,38.592610092610094 0 0,0 -0.6502092845948673,0.13625767745331258 l -3.459989465925266 -17.249011646070993" fill="#ffcd13" stroke="none" /><path d="M 103.41894727170886 120.7198165907248 l 4.849755057832721 29.390928646293197 a50.78836703836704,50.78836703836704 0 0,0 -0.8637992024758104,0.1349076704988845 l -4.343119991748393 -29.470054624139188" fill="#9bff22" stroke="none" /><path d="M 102.70371172650421 120.8252237178851 l 0.5564428825899822 4.285977459270088 a25.32194764694765,25.32194764694765 0 0,0 -0.43273107644848285,0.05239770698297402 l -0.4825843830901191 -4.294920694978412" fill="#ff1302" stroke="none" /><line stroke="#e1ed5e" stroke-width="0.3" x1="102.19456741930631" x2="102.32365962044197" y1="184.97166512339345" y2="189.96999836594603" /><path d="M 102.22038585953345 185.97133177190398 a86.0,86.0 0 0,1 -42.740103519485714,-10.115201625700543" fill="none" id="id7" stroke="none" /><text fill="#e1ed5e" style="font-size:6.75px; font-family:Arial;" text-anchor="middle"><textPath startOffset="22.20632615414155" xlink:href="#id7">July</textPath></text><path d="M 98.73552117531835 120.96189622390904 l -0.8962002631933813 14.85675880545433 a35.88376488376488,35.88376488376488 0 0,0 -0.6162391381209021,-0.042499458935601184 l 1.1518021620932135 -14.839131002002445" fill="#ffa90f" stroke="none" /><path d="M 98.37488393609728 120.93702456842531 l -1.1527236038228883 14.851002306804048 a35.895671895671896,35.895671895671896 0 0,0 -0.6156204857957848,-0.053118325910370086 l 1.4081884073602147 -14.828959728615015" fill="#ffa90f" stroke="none" /><path d="M 98.01472825383883 120.90594882070398 l -1.4079069948087841 14.82599630740626 a35.892695142695146,35.892695142695146 0 0,0 -0.6145639615850441,-0.06370206741871891 l 1.6629035529994214 -14.799564871531782" fill="#ffa90f" stroke="none" /><path d="M 96.93821686468263 120.77559828337769 l -4.340081934394296 29.449440016127895 a50.767529767529766,50.767529767529766 0 0,0 -0.8634448060070794,-0.13485232105900022 l 4.846362604009893 -29.37036938772179" fill="#9cff22" stroke="none" /><path d="M 96.22490169976321 120.6578951692458 l -5.35120719179285 29.282595685001613 a50.767529767529766,50.767529767529766 0 0,0 -0.8582912950318368,-0.1644935694433461 l 5.8544661013963815 -29.1861449172098" fill="#9cff22" stroke="none" /><path d="M 95.86986931433489 120.58985236759428 l -3.296064415086163 16.43179958838912 a37.75911925911926,37.75911925911926 0 0,0 -0.6361666096563087,-0.13331489838556992 l 3.578422486171858 -16.372628709277006" fill="#ffc212" stroke="none" /><path d="M 95.51606077576429 120.51570834832081 l -3.180537499254703 14.552155250661126 a35.895671895671896,35.895671895671896 0 0,0 -0.6025000508204404,-0.1371270499949728 l 3.430557699468006 -14.495251467088467" fill="#ffa90f" stroke="none" /><path d="M 95.16358092515715 120.4354850818985 l -3.449067902882401 14.573463255579949 a35.97604422604422,35.97604422604422 0 0,0 -0.6013939120707529,-0.14780799174580495 l 3.6994150996963646 -14.511934005520114" fill="#ffaa0f" stroke="none" /><path d="M 94.46302465271185 120.25689768951611 l -2.6159618454703373 9.570436590317122 a30.92151767151767,30.92151767151767 0 0,0 -0.5122205825153996,-0.14475865305195892 l 2.7803135960903504 -9.523989143926643" fill="#ff6509" stroke="none" /><path d="M 94.11515582081647 120.15858648285463 l -8.34177496576763 28.574824914271357 a50.767529767529766,50.767529767529766 0 0,0 -0.8367577399234201,-0.25210824301052054 l 8.832407680131295 -28.427001302155112" fill="#9cff22" stroke="none" /><path d="M 93.76903079525671 120.05430185196036 l -2.6523720263434285 8.536628491037181 a29.93918918918919,29.93918918918919 0 0,0 -0.49082970395818637,-0.15714817131622916 l 2.798923075392555 -8.489707473061245" fill="#ff5708" stroke="none" /><path d="M 92.7421414339146 119.70592522655815 l -3.430027470137317 9.312921192403829 a30.924494424494426,30.924494424494426 0 0,0 -0.4979282129930553,-0.18827384413044176 l 3.589825903890655 -9.252499098166755" fill="#ff6509" stroke="none" /><path d="M 92.06813273071674 119.44442032107085 l -13.49999012033889 33.094285786490886 a56.741872991872995,56.741872991872995 0 0,0 -0.9011920992552268,-0.3766983705775295 l 14.06765367909158 -32.85700237289338" fill="#5aff2a" stroke="none" /><path d="M 90.10565033884886 118.52300852407294 l -4.016832937469786 7.519830336365271 a29.525420525420525,29.525420525420525 0 0,0 -0.4462235687978044,-0.2433166682213385 l 4.145679318136231 -7.449573016384167" fill="#ff5107" stroke="none" /><line stroke="#e1ed5e" stroke-width="0.3" x1="58.666819895761336" x2="56.23545636021788" y1="174.27360380694188" y2="178.64263932499728" /><path d="M 58.180547188652646 175.14741091055294 a86.0,86.0 0 0,1 -31.652253787137756,-30.449443065178592" fill="none" id="id8" stroke="none" /><text fill="#e1ed5e" style="font-size:6.75px; font-family:Arial;" text-anchor="middle"><textPath startOffset="22.20632615414155" xlink:href="#id8">August</textPath></text><path d="M 83.50135304334701 112.99209946851258 l -13.246782662805783 10.43137164187521 a37.86092421092421,37.86092421092421 0 0,0 -0.3987894442514199,-0.515489114053027 l 13.424378924275272 -10.20180453370893" fill="#ffc412" stroke="none" /><path d="M 83.28015986056508 112.70617746262583 l -11.865129799194822 9.016859227623852 a35.90251842751843,35.90251842751843 0 0,0 -0.36969119558204533,-0.49526177055389625 l 12.018582261471952 -8.811284577560649" fill="#ffa90f" stroke="none" /><path d="M 83.06392112726016 112.41649034213515 l -13.52549636680442 9.916061224852024 a37.77102627102627,37.77102627102627 0 0,0 -0.37990495291202636,-0.5276547521686342 l 13.694181112092055 -9.681772867232253" fill="#ffc212" stroke="none" /><path d="M 82.6465618267979 111.8261652097733 l -18.148298453163452 12.367853196654522 a42.961888111888115,42.961888111888115 0 0,0 -0.41120029029434146,-0.6146886416020078 l 18.358501848868524 -12.053627640846694" fill="#f9ff18" stroke="none" /><path d="M 82.44556493220864 111.52570212397912 l -13.372358824557379 8.779879495501385 a36.997070497070496,36.997070497070496 0 0,0 -0.34494507012490433,-0.5353624090591986 l 13.52150875805933 -8.548395486520738" fill="#ffb811" stroke="none" /><path d="M 82.05923443525364 110.91462005526583 l -32.864559638048185 19.993805751398646 a59.46857871857872,59.46857871857872 0 0,0 -0.5245103844631388,-0.8791095741411691 l 33.20385089820956 -19.425134083371365" fill="#3eff2d" stroke="none" /><line stroke="#e1ed5e" stroke-width="0.3" x1="26.63291911575756" x2="22.317208475507996" y1="142.92168965132927" y2="145.44649492493687" /><path d="M 25.769776987707644 143.4266507060508 a86.0,86.0 0 0,1 -11.730757126820373,-40.83630448921669" fill="none" id="id9" stroke="none" /><text fill="#e1ed5e" style="font-size:6.75px; font-family:Arial;" text-anchor="middle"><textPath startOffset="21.46611528233685" xlink:href="#id9">September</textPath></text><path d="M 81.69416730710424 110.29060199501025 l -17.750101380044427 9.978198300916784 a41.36247873747874,41.36247873747874 0 0,0 -0.3435520026369688,-0.6236466762109039 l 17.919229792132914 -9.671181106308056" fill="#fff116" stroke="none" /><path d="M 81.51974371655577 109.97397251340807 l -15.55191629704476 8.393519186014133 a38.672387072387075,38.672387072387075 0 0,0 -0.31112394270648275,-0.5885292494815387 l 15.69409274797613 -8.124574921446468" fill="#ffce13" stroke="none" /><path d="M 81.35079622478065 109.6543875284942 l -14.535963447193158 7.525030339670814 a37.368271593271594,37.368271593271594 0 0,0 -0.2907986976933574,-0.5737734186286011 l 14.66334081467278 -7.273702709339529" fill="#ffbd11" stroke="none" /><path d="M 81.02952815118164 109.00673069616217 l -19.866827540030723 9.432299147124278 a42.99225099225099,42.99225099225099 0 0,0 -0.31164342286732133,-0.6712522077557634 l 20.02624557973787 -9.088926872089687" fill="#f9ff18" stroke="none" /><path d="M 80.87730276802145 108.67885076344099 l -40.75454822568475 18.496482880599412 a65.755481005481,65.755481005481 0 0,0 -0.4589072366255345,-1.0347146706182924 l 41.066896547041566 -17.792219873488424" fill="#36ff6b" stroke="none" /><path d="M 80.58989483394504 108.01547362559985 l -19.807221757290158 8.179464368365144 a42.42964467964468,42.42964467964468 0 0,0 -0.2729587654384729,-0.6774612706328577 l 19.945083136986018 -7.837303729889482" fill="#fffe18" stroke="none" /><path d="M 80.45479744820244 107.68017299344265 l -20.315503697538176 7.982858322011472 a42.82763655263655,42.82763655263655 0 0,0 -0.263707542749811,-0.6884571804002342 l 20.449905519881497 -7.63197757477808" fill="#fbff18" stroke="none" /><path d="M 80.20201598880116 107.00284435728193 l -21.09967058989772 7.463270454577232 a43.38071725571726,43.38071725571726 0 0,0 -0.2429509575967456,-0.7061292055985393 l 21.225012378437693 -7.098968545889396" fill="#f4ff19" stroke="none" /><path d="M 80.0844068197444 106.66101706037122 l -27.49413321222058 9.195753735735323 a49.9911925911926,49.9911925911926 0 0,0 -0.2659239806369181,-0.8184298573463572 l 27.648349443873748 -8.721124978411162" fill="#a5ff21" stroke="none" /><path d="M 79.97269907076064 106.31721596034903 l -43.874778283130915 13.839431015005799 a67.00571725571726,67.00571725571726 0 0,0 -0.3374957606989947,-1.1029556733383465 l 44.106500816336045 -13.082148369115403" fill="#37ff79" stroke="none" /><path d="M 79.76711848015287 105.62410040840567 l -17.975276638486367 4.996557736205237 a39.65679928179928,39.65679928179928 0 0,0 -0.17715622032160525,-0.6592641995482812 l 18.058620935149747 -4.686402603481417" fill="#ffdb14" stroke="none" /><path d="M 79.67330655649465 105.27499134158121 l -22.497281573458196 5.8382818552824745 a44.24248724248724,44.24248724248724 0 0,0 -0.1849518955874093,-0.7387908853217299 l 22.594444783340663 -5.450163130563353" fill="#e9ff1a" stroke="none" /><path d="M 79.50377843672027 104.57218783832718 l -17.47127599283444 3.8973991068484906 a38.90070402570403,38.90070402570403 0 0,0 -0.14016472211432918,-0.6548029184794466 l 17.53577475367321 -3.5960823689528802" fill="#ffd113" stroke="none" /><path d="M 79.35854240842038 103.8639653848113 l -33.99052346078915 6.362835835667098 a55.58093933093933,55.58093933093933 0 0,0 -0.167943254222753,-0.9419149583102927 l 34.09501315735109 -5.776802126623592" fill="#67ff29" stroke="none" /><path d="M 79.23777060512086 103.15116336523772 l -17.888440187292723 2.7149973303611685 a39.09329994329994,39.09329994329994 0 0,0 -0.09524979954722274,-0.6661768761875348 l 17.932524037856545 -2.406674982193233" fill="#ffd413" stroke="none" /><line stroke="#e1ed5e" stroke-width="0.3" x1="15.007084014347285" x2="10.007500721073583" y1="101.09737516637583" y2="101.16192664675087" /><path d="M 14.007167355692545 101.11028546245083 a86.0,86.0 0 0,1 10.666146001902534,-42.60595125391555" fill="none" id="id10" stroke="none" /><text fill="#e1ed5e" style="font-size:6.75px; font-family:Arial;" text-anchor="middle"><textPath startOffset="22.20632615414155" xlink:href="#id10">October</textPath></text><line stroke="#e1ed5e" stroke-width="0.3" x1="26.266209847984243" x2="21.928928074336255" y1="57.711370442889674" y2="55.22380399835377" /><path d="M 25.398753493254645 57.213857153982495 a86.0,86.0 0 0,1 29.58750427330803,-30.492523968695096" fill="none" id="id11" stroke="none" /><text fill="#e1ed5e" style="font-size:6.75px; font-family:Arial;" text-anchor="middle"><textPath startOffset="21.46611528233685" xlink:href="#id11">November</textPath></text><line stroke="#e1ed5e" stroke-width="0.3" x1="56.762969772571076" x2="54.21961505331055" y1="26.818313649435495" y2="22.513508569990535" /><path d="M 56.25429882871897 25.957352633546506 a86.0,86.0 0 0,1 42.265352541879196,-11.944610805530505" fill="none" id="id12" stroke="none" /><text fill="#e1ed5e" style="font-size:6.75px; font-family:Arial;" text-anchor="middle"><textPath startOffset="22.20632615414155" xlink:href="#id12">December</textPath></text></svg>