<?xml version="1.0" encoding="utf-8" ?>
<svg baseProfile="full" height="200mm" version="1.1" viewBox="0,0,200,200" width="200mm" xmlns="http://www.w3.org/2000/svg" xmlns:ev="http://www.w3.org/2001/xml-events" xmlns:xlink="http://www.w3.org/1999/xlink"><defs /><rect fill="#1a1a1a" height="200" width="200" x="0" y="0" /><text alignment-baseline="middle" fill="#e1ed5e" style="dominant-baseline: central; font-size:9.0px; font-family:Arial;" text-anchor="middle" x="100.0" y="100.0">2025</text><line stroke="#e1ed5e" stroke-width="0.3" x1="100.0" x2="100.0" y1="15.0" y2="10.0" /><path d="M 100.0 14.0 a86.0,86.0 0 0,1 42.46469731375804,11.215312516191453" fill="none" id="id1" stroke="none" /><text fill="#e1ed5e" style="font-size:6.75px; font-family:Arial;" text-anchor="middle"><textPath startOffset="22.20632615414155" xlink:href="#id1">January</textPath></text><path d="M 101.44485096284872 79.0497635885617 l 0.5561820022647361 -8.064599557216317 a29.083755589940658,29.083755589940658 0 0,0 0.49914623070487923,0.03874335415254139 l -0.6949184223319566 8.053830940875311" fill="#ff4e07" stroke="none" /><path d="M 102.16513564639614 79.11191278185805 l 0.8337526480408971 -8.043605978970952 a29.08670146741256,29.08670146741256 0 0,0 0.49756722153176786,0.055907474829399235 l -0.9720865730823903 8.02806255067095" fill="#ff4e07" stroke="none" /><path d="M 105.01212808612495 79.60689891045804 l 1.9682985192072706 -8.008516539652721 a29.24685007906684,29.24685007906684 0 0,0 0.48785293412660885,0.12436457540757043 l -2.1058603420189046 7.973448968076283" fill="#ff5107" stroke="none" /><path d="M 106.0581310904928 79.89281104454417 l 3.8501338554187314 -12.778754335011401 a34.34616398292836,34.34616398292836 0 0,0 0.5646094380087222,0.17542690076722503 l -4.069528666138172 12.710587299361656" fill="#ff980e" stroke="none" /><path d="M 107.4271985657038 80.35727306442388 l 4.7358478212220945 -12.524906226456007 a34.39035214500689,34.39035214500689 0 0,0 0.5519108397360539,0.2141328313682397 l -4.950741825957816 12.44153069119722" fill="#ff980e" stroke="none" /><path d="M 109.08828744355905 81.06846463323043 l 11.590035168028585 -24.142850019685387 a47.78070429001377,47.78070429001377 0 0,0 0.7383910202184474,0.3623252668241995 l -12.003897455257464 23.939769592726357" fill="#bcff1f" stroke="none" /><path d="M 110.05341064243156 81.56283822128135 l 6.410414702881831 -11.756194703404965 a34.39035214500689,34.39035214500689 0 0,0 0.5172897052827401,0.28787116093216425 l -6.611828497236607 11.644108144912622" fill="#ff980e" stroke="none" /><line stroke="#e1ed5e" stroke-width="0.3" x1="143.23703022742887" x2="145.7803849466894" y1="26.81831364943548" y2="22.513508569990506" /><path d="M 143.74570117128098 25.957352633546492 a86.0,86.0 0 0,1 28.547481713284135,27.462654790039103" fill="none" id="id2" stroke="none" /><text fill="#e1ed5e" style="font-size:6.75px; font-family:Arial;" text-anchor="middle"><textPath startOffset="19.985693538727396" xlink:href="#id2">February</textPath></text><path d="M 110.99172775467656 82.1063720568725 l 7.01670924082031 -11.422625026982193 a34.405617146452194,34.405617146452194 0 0,0 0.5019629592612104,0.31432915903919956 l -7.212291352453783 11.300151526620049" fill="#ff990e" stroke="none" /><path d="M 111.60114157652 82.49532879139004 l 10.720172059240278 -16.175398426007185 a40.40529832854398,40.40529832854398 0 0,0 0.5764398904921417,0.3892147872325192 l -10.997016644138961 15.988471726475996" fill="#ffe815" stroke="none" /><path d="M 113.06298171725822 83.55741782278167 l 1.7040337690121867 -2.1448943193973005 a23.73939824182551,23.73939824182551 0 0,0 0.31776496028101164,0.2569438321421704 l -1.7407021278576895 2.115244389991" fill="#ff0000" stroke="none" /><path d="M 114.42810811169701 84.74124197986012 l 5.751764035278031 -6.082902548539888 a29.371648161058303,29.371648161058303 0 0,0 0.36437173850839,0.3505253237537211 l -5.855619017398839 5.982994138023865" fill="#ff5307" stroke="none" /><path d="M 116.60985879189232 87.15038557335679 l 10.594430004615884 -8.19599626553264 a34.39463705769329,34.39463705769329 0 0,0 0.3582349834179442,0.471395246345262 l -10.73394092825794 8.012416243306344" fill="#ff980e" stroke="none" /><path d="M 117.45458315368197 88.32363383020206 l 6.032279719756268 -4.035335947376223 a28.25757086259373,28.25757086259373 0 0,0 0.26697129217859333,0.4066155938355544 l -6.100847647292786 3.930902289562994" fill="#ff4306" stroke="none" /><line stroke="#e1ed5e" stroke-width="0.3" x1="172.23445277983987" x2="176.4835382374775" y1="55.19839476539836" y2="52.563006222186495" /><path d="M 173.08426987136738 54.67131705675599 a86.0,86.0 0 0,1 12.851231095245387,41.99856678651699" fill="none" id="id3" stroke="none" /><text fill="#e1ed5e" style="font-size:6.75px; font-family:Arial;" text-anchor="middle"><textPath startOffset="22.20632615414155" xlink:href="#id3">March</textPath></text><path d="M 118.56541770881063 90.18545643968196 l 11.850286772390241 -6.264612924636193 a34.404278111237694,34.404278111237694 0 0,0 0.27226983242969494,0.5259386545070782 l -11.956366037980052 6.05970154786877" fill="#ff990e" stroke="none" /><path d="M 119.196687751892 91.48605970444005 l 24.480991334816625 -10.85758654277254 a47.78070429001377,47.78070429001377 0 0,0 0.326977671273079,0.754709546916769 l -24.664259715932385 10.434577851269168" fill="#bcff1f" stroke="none" /><path d="M 119.61058180528143 92.48833698450437 l 25.008818680112686 -9.579410759248654 a47.78070429001377,47.78070429001377 0 0,0 0.28758389430564046,0.7705818590224258 l -25.17000716291995 9.147505763196895" fill="#bcff1f" stroke="none" /><path d="M 119.85752413597 93.16781622104841 l 12.658070054111397 -4.355138148359511 a34.38633503936339,34.38633503936339 0 0,0 0.18775382061352447,0.561360025877079 l -12.73116116849669 4.136605019560118" fill="#ff980e" stroke="none" /><path d="M 120.73433829027371 96.67025291283417 l 10.145762189868421 -1.6293175902622752 a31.275756236078283,31.275756236078283 0 0,0 0.08078692638268149,0.5322849066372977 l -10.172305009690403 1.4544335712328955" fill="#ff6d0a" stroke="none" /><path d="M 120.78858239683441 97.02765380044208 l 7.9840796891278645 -1.1415616739966088 a29.065276903980546,29.065276903980546 0 0,0 0.06655118104929773,0.49588359988132236 l -8.002546869234997 1.003959732050622" fill="#ff4e07" stroke="none" /><line stroke="#e1ed5e" stroke-width="0.3" x1="184.98032266829074" x2="189.97916517819016" y1="98.17113171792111" y2="98.06355123074" /><path d="M 185.9800911702706 98.14961562048488 a86.0,86.0 0 0,1 -9.607161424134198,41.387399972396054" fill="none" id="id4" stroke="none" /><text fill="#e1ed5e" style="font-size:6.75px; font-family:Arial;" text-anchor="middle"><textPath startOffset="21.466115282336823" xlink:href="#id4">April</textPath></text><path d="M 120.81339534386255 102.79330883721812 l 9.585907902139002 1.2864984695396968 a30.67185135433847,30.67185135433847 0 0,0 -0.07473116102964139,0.5226695661854208 l -9.562342690092759 -1.451313507705527" fill="#ff6509" stroke="none" /><line stroke="#e1ed5e" stroke-width="0.3" x1="174.80103733775053" x2="179.2010983576182" y1="140.37084112569926" y2="142.7455964860345" /><path d="M 175.68104954172406 140.8457921977663 a86.0,86.0 0 0,1 -30.038265399797805,32.042727171017184" fill="none" id="id5" stroke="none" /><text fill="#e1ed5e" style="font-size:6.75px; font-family:Arial;" text-anchor="middle"><textPath startOffset="22.206326154141568" xlink:href="#id5">May</textPath></text><path d="M 118.48025628344425 109.97397251340804 l 49.87793235740093 26.919601044927983 a77.67868255938515,77.67868255938515 0 0,0 -0.645190224813541,1.1712076662056945 l -49.407165723135876 -27.774179229531484" fill="#45ffef" stroke="none" /><path d="M 117.75023020441432 111.22182372390056 l 6.804491335949416 4.301848563284725 a29.05027970957814,29.05027970957814 0 0,0 -0.2708525468891312,0.42036916761813736 l -6.729433925683235 -4.418339330824316" fill="#ff4e07" stroke="none" /><path d="M 117.35343817320211 111.8261652097733 l 6.670971930757054 4.546189370399323 a29.072775501181752,29.072775501181752 0 0,0 -0.2853826460996418,0.4111149865500511 l -6.591728377495277 -4.660345619136393" fill="#ff4e07" stroke="none" /><path d="M 115.32070863581623 114.36230785411682 l 5.867280955096347 5.500247889754403 a29.042245498291138,29.042245498291138 0 0,0 -0.3450404754794,0.3617735590865086 l -5.771733928237983 -5.600428565423419" fill="#ff4e07" stroke="none" /><path d="M 114.81725581225074 114.88116024355365 l 9.448013007080354 9.488760761307612 a34.39035214500689,34.39035214500689 0 0,0 -0.42308329116551124,0.41407604763435696 l -9.283279763539047 -9.64998691186454" fill="#ff980e" stroke="none" /><path d="M 113.75828350139079 115.86535959552629 l 5.283841980807804 6.093060450671738 a29.065009096937647,29.065009096937647 0 0,0 -0.3807994012461774,0.3245255110085739 l -5.178177102984579 -6.183110351903258" fill="#ff4e07" stroke="none" /><path d="M 112.92097659922987 116.55440617244103 l 14.84316163717622 19.017117223140506 a45.12405842444441,45.12405842444441 0 0,0 -0.6164188578930592,0.4726436947838541 l -14.513614050789668 -19.269800259751733" fill="#dcff1b" stroke="none" /><path d="M 111.1453310114006 117.79835938074945 l 7.113768901063579 11.360220286253979 a34.403742497151896,34.403742497151896 0 0,0 -0.5046222994902647,0.3099802316537044 l -6.917167401641005 -11.480988984736062" fill="#ff990e" stroke="none" /><line stroke="#e1ed5e" stroke-width="0.3" x1="143.8653032363475" x2="146.44561519142675" y1="172.8068346515853" y2="177.08958963109032" /><path d="M 144.38136562736335 173.6633856474863 a86.0,86.0 0 0,1 -40.68145358897372,12.25698825130547" fill="none" id="id6" stroke="none" /><text fill="#e1ed5e" style="font-size:6.75px; font-family:Arial;" text-anchor="middle"><textPath startOffset="21.466115282336833" xlink:href="#id6">June</textPath></text><path d="M 110.8373102113329 117.98757091392108 l 13.820514288993015 22.939038930541578 a47.78070429001377,47.78070429001377 0 0,0 -0.7081376342830621,0.4183801962694238 l -13.423608783681571 -23.17353769910475" fill="#bcff1f" stroke="none" /><path d="M 110.21172684928248 118.3499491758327 l 13.022725573382306 23.401169648321783 a47.78070429001377,47.78070429001377 0 0,0 -0.7221193130714364,0.3937570258518534 l -12.61798344844222 -23.621867325933405" fill="#bcff1f" stroke="none" /><path d="M 109.57404056367764 118.69057910512821 l 7.674160602473101 14.98160623531816 a37.832743874445256,37.832743874445256 0 0,0 -0.5821668259364745,0.29191053210960666 l -7.415139868853866 -15.11148460833707" fill="#ffc612" stroke="none" /><path d="M 109.2508944713604 118.85261126421891 l 5.900235311372201 12.024225661322458 a34.39383363656459,34.39383363656459 0 0,0 -0.5337387943363755,0.2562270565345769 l -5.692383849035593 -12.124006994356595" fill="#ff980e" stroke="none" /><path d="M 107.93186726928326 119.44442032107085 l 10.144720804403356 24.8690766831951 a47.85863613949771,47.85863613949771 0 0,0 -0.7654622480303973,0.30459322583169623 l -9.715137480331093 -25.040016753432866" fill="#bbff1f" stroke="none" /><path d="M 105.88484417918355 120.15858648285463 l 7.51603200776937 25.746235010345313 a47.82087534644879,47.82087534644879 0 0,0 -0.7921615260468761,0.22387275994845937 l -7.071739313617888 -25.87179656363229" fill="#bcff1f" stroke="none" /><path d="M 104.48393922423573 120.51570834832081 l 3.379480133210601 15.462392622797097 a36.82739623539814,36.82739623539814 0 0,0 -0.6204689162574972,0.13002529410803162 l -3.112819755523726 -15.51827389763167" fill="#ffb911" stroke="none" /><path d="M 103.41894727170886 120.7198165907248 l 4.363138530375767 26.441890712203037 a47.79945078301678,47.79945078301678 0 0,0 -0.8129642647096846,0.12696829869311366 l -3.9073384020575648 -26.513077318243255" fill="#bcff1f" stroke="none" /><path d="M 102.70371172650421 120.8252237178851 l 0.5006103095991558 3.8559294582642742 a24.8882904558671,24.8882904558671 0 0,0 -0.42532023484489345,0.051500357270933314 l -0.43416265170288193 -3.8639753442605587" fill="#ff1101" stroke="none" /><line stroke="#e1ed5e" stroke-width="0.3" x1="102.19456741930631" x2="102.32365962044197" y1="184.97166512339345" y2="189.96999836594603" /><path d="M 102.22038585953345 185.97133177190398 a86.0,86.0 0 0,1 -42.740103519485714,-10.115201625700543" fill="none" id="id7" stroke="none" /><text fill="#e1ed5e" style="font-size:6.75px; font-family:Arial;" text-anchor="middle"><textPath startOffset="22.20632615414155" xlink:href="#id7">July</textPath></text><path d="M 98.73552117531835 120.96189622390904 l -0.8062769877329379 13.366055812630098 a34.39035214500689,34.39035214500689 0 0,0 -0.5905924596864611,-0.04073071383401166 l 1.036232208198329 -13.350196754279802" fill="#ff980e" stroke="none" /><path d="M 98.37488393609728 120.93702456842531 l -1.0370611939648875 13.360876911683222 a34.40106442672289,34.40106442672289 0 0,0 -0.5899875632868363,-0.050906609498585095 l 1.2668930749932656 -13.341046049905975" fill="#ff990e" stroke="none" /><path d="M 98.01472825383883 120.90594882070398 l -1.2666398989191265 13.338379973557075 a34.39838635629389,34.39838635629389 0 0,0 -0.5889780220519133,-0.06104998017151508 l 1.4960505175766332 -13.314600624929799" fill="#ff990e" stroke="none" /><path d="M 96.93821686468263 120.77559828337769 l -3.904605178432644 26.494531146440753 a47.78070429001377,47.78070429001377 0 0,0 -0.8126454278056947,-0.12691850292592252 l 4.3600864698468556 -26.423394336167725" fill="#bcff1f" stroke="none" /><path d="M 96.22490169976321 120.6578951692458 l -4.814275773541679 26.34442770388933 a47.78070429001377,47.78070429001377 0 0,0 -0.8077951153108588,-0.15481585641790024 l 5.267038503424232 -26.257654649122962" fill="#bcff1f" stroke="none" /><path d="M 95.86986931433489 120.58985236759428 l -2.9653426774278437 14.783059567456231 a36.07753651527776,36.07753651527776 0 0,0 -0.6078352604618266,-0.12737778870131752 l 3.219369399319057 -14.729825798028372" fill="#ffaf10" stroke="none" /><path d="M 95.51606077576429 120.51570834832081 l -2.861407544261555 13.092015682652567 a34.40106442672289,34.40106442672289 0 0,0 -0.5774134309456092,-0.1314174169864835 l 3.0863411246000267 -13.040821532088396" fill="#ff990e" stroke="none" /><path d="M 95.16358092515715 120.4354850818985 l -3.1029940443370774 13.11118567704571 a34.47337232830593,34.47337232830593 0 0,0 -0.5762744818893379,-0.14163424695991308 l 3.3282218109696258 -13.055830171771765" fill="#ff9a0e" stroke="none" /><path d="M 94.46302465271185 120.25689768951611 l -2.353480492490105 8.610154562814422 a29.92600873986159,29.92600873986159 0 0,0 -0.4957297954107984,-0.1400981918941785 l 2.5013414560055174 -8.568367577581723" fill="#ff5a08" stroke="none" /><path d="M 94.11515582081647 120.15858648285463 l -7.504774845501102 25.70767350009518 a47.78070429001377,47.78070429001377 0 0,0 -0.7875284520782891,-0.2372758624167886 l 7.946178272019637 -25.574682268572666" fill="#bcff1f" stroke="none" /><path d="M 93.76903079525671 120.05430185196036 l -2.3862373350874977 7.680077085252373 a29.042245498291138,29.042245498291138 0 0,0 -0.47612501027096976,-0.15244019275650397 l 2.5180836904494077 -7.637864045836163" fill="#ff4e07" stroke="none" /><path d="M 92.7421414339146 119.70592522655815 l -3.0858640976172045 8.378477840711543 a29.928686810290593,29.928686810290593 0 0,0 -0.48189429829039,-0.18221118955743706 l 3.2296286166678776 -8.324118401047473" fill="#ff5a08" stroke="none" /><path d="M 92.06813273071674 119.44442032107085 l -12.145423088659102 29.773659025747435 a53.155591641019534,53.155591641019534 0 0,0 -0.8442336618846733,-0.352889739137172 l 12.656128210041238 -29.56018424359029" fill="#7fff26" stroke="none" /><path d="M 90.10565033884886 118.52300852407294 l -3.6137904596338504 6.765302802147328 a28.669993708659945,28.669993708659945 0 0,0 -0.43329533271420284,-0.23626716310820495 l 3.7297086042166936 -6.702094987279358" fill="#ff4806" stroke="none" /><line stroke="#e1ed5e" stroke-width="0.3" x1="58.666819895761336" x2="56.23545636021788" y1="174.27360380694188" y2="178.64263932499728" /><path d="M 58.180547188652646 175.14741091055294 a86.0,86.0 0 0,1 -31.652253787137756,-30.449443065178592" fill="none" id="id8" stroke="none" /><text fill="#e1ed5e" style="font-size:6.75px; font-family:Arial;" text-anchor="middle"><textPath startOffset="22.20632615414155" xlink:href="#id8">August</textPath></text><path d="M 83.50135304334701 112.99209946851258 l -11.917622055211679 9.384704792838368 a36.1691265239496,36.1691265239496 0 0,0 -0.38096972448927585,-0.4924547241380584 l 12.077398596919023 -9.178172074587058" fill="#ffb010" stroke="none" /><path d="M 83.28015986056508 112.70617746262583 l -10.674601990705785 8.112122251510398 a34.407223988709596,34.407223988709596 0 0,0 -0.354294025326526,-0.47463474482702595 l 10.812657282727397 -7.927174627174064" fill="#ff990e" stroke="none" /><path d="M 83.06392112726016 112.41649034213515 l -12.168370079876585 8.921099784171679 a36.08824879699376,36.08824879699376 0 0,0 -0.3629794001762741,-0.5041466397693505 l 12.320129272428467 -8.71031953895119" fill="#ffaf10" stroke="none" /><path d="M 82.6465618267979 111.8261652097733 l -16.327327730473517 11.126882940861243 a40.75826801108636,40.75826801108636 0 0,0 -0.390108823765025,-0.5831597608684375 l 16.516439659649272 -10.844186265786984" fill="#ffec16" stroke="none" /><path d="M 82.44556493220864 111.52570212397912 l -12.030598109321911 7.898920679923454 a35.3919504854534,35.3919504854534 0 0,0 -0.32997960860248493,-0.5121356804370905 l 12.164782581301441 -7.690663399564915" fill="#ffa60f" stroke="none" /><path d="M 82.05923443525364 110.91462005526583 l -29.56698322506214 17.987659830754488 a55.608704153984796,55.608704153984796 0 0,0 -0.49046645175986475,-0.8220499847271312 l 29.872230552520236 -17.47604775214125" fill="#65ff29" stroke="none" /><line stroke="#e1ed5e" stroke-width="0.3" x1="26.63291911575756" x2="22.317208475507996" y1="142.92168965132927" y2="145.44649492493687" /><path d="M 25.769776987707644 143.4266507060508 a86.0,86.0 0 0,1 -11.730757126820373,-40.83630448921669" fill="none" id="id9" stroke="none" /><text fill="#e1ed5e" style="font-size:6.75px; font-family:Arial;" text-anchor="middle"><textPath startOffset="21.46611528233685" xlink:href="#id9">September</textPath></text><path d="M 81.69416730710424 110.29060199501025 l -15.969085103435589 8.977002127178705 a39.31934076958392,39.31934076958392 0 0,0 -0.32658193309667605,-0.5928410707053675 l 16.12124344598378 -8.700790538075516" fill="#ffda14" stroke="none" /><path d="M 81.51974371655577 109.97397251340807 l -13.99146233317982 7.551327134923872 a36.89916852289538,36.89916852289538 0 0,0 -0.29685818907287664,-0.5615438197963813 l 14.119373030477583 -7.309368300041364" fill="#ffba11" stroke="none" /><path d="M 81.35079622478065 109.6543875284942 l -13.077448538385502 6.769981045586415 a35.72590586794987,35.72590586794987 0 0,0 -0.2780178600014756,-0.5485556133441318 l 13.192045068173243 -6.543871220539598" fill="#ffaa0f" stroke="none" /><path d="M 81.02952815118164 109.00673069616217 l -17.873422406404 8.48587760579391 a40.785584329462175,40.785584329462175 0 0,0 -0.29564767628399713,-0.6367987926637039 l 18.016844699527823 -8.176958745851378" fill="#ffec16" stroke="none" /><path d="M 80.87730276802145 108.67885076344099 l -36.665303202138716 16.6405758992793 a61.264788900035704,61.264788900035704 0 0,0 -0.42756671454077894,-0.9640500669733629 l 36.94631100141078 -16.006977495813242" fill="#30ff35" stroke="none" /><path d="M 80.58989483394504 108.01547362559985 l -17.819797370869765 7.358750229212216 a40.27942901838091,40.27942901838091 0 0,0 -0.25912597902801776,-0.6431294291806652 l 17.94382596415517 -7.050921432188746" fill="#ffe615" stroke="none" /><path d="M 80.45479744820244 107.68017299344265 l -18.277079128679077 7.181871313489434 a40.6374870347384,40.6374870347384 0 0,0 -0.25022188269220397,-0.6532503774309896 l 18.39799529096479 -6.866197369225286" fill="#ffea16" stroke="none" /><path d="M 80.20201598880116 107.00284435728193 l -18.982563991625515 6.714418046822556 a41.135072520446855,41.135072520446855 0 0,0 -0.23037436658189483,-0.6695757451376234 l 19.09532918915064 -6.386669598595635" fill="#fff116" stroke="none" /><path d="M 80.0844068197444 106.66101706037122 l -24.735416644141242 8.273066775905118 a47.08226352213022,47.08226352213022 0 0,0 -0.2504501750055678,-0.7708063804973004 l 24.87415907016306 -7.846061495430013" fill="#c4ff1e" stroke="none" /><path d="M 79.97269907076064 106.31721596034903 l -39.47245445512671 12.450805036540048 a62.38957848021629,62.38957848021629 0 0,0 -0.3142450989445024,-1.0269711654503797 l 39.68092632657734 -11.769506898537621" fill="#31ff43" stroke="none" /><path d="M 79.76711848015287 105.62410040840567 l -16.171666643014298 4.495211266984393 a37.784806413766134,37.784806413766134 0 0,0 -0.16879358927281157,-0.6281437384406099 l 16.246648308628885 -4.216176595368244" fill="#ffc612" stroke="none" /><path d="M 79.67330655649465 105.27499134158121 l -20.23994096430384 5.252478158218628 a41.91037390964276,41.91037390964276 0 0,0 -0.17520269728239082,-0.6998476843122668 l 20.327354975881292 -4.90330263450897" fill="#fffb17" stroke="none" /><path d="M 79.50377843672027 104.57218783832718 l -15.718236601670945 3.5063404251475676 a37.10457652479978,37.10457652479978 0 0,0 -0.133693021451025,-0.6245692875205784 l 15.776263661846412 -3.2352573182108255" fill="#ffbd11" stroke="none" /><path d="M 79.35854240842038 103.8639653848113 l -30.579969670815892 5.724399246146913 a52.11114417370899,52.11114417370899 0 0,0 -0.1574589281712997,-0.8831132899648176 l 30.67397504132638 -5.197167205448881" fill="#8bff24" stroke="none" /><path d="M 79.23777060512086 103.15116336523772 l -16.093543219970037 2.442578918049505 a37.27784768155617,37.27784768155617 0 0,0 -0.09082649774692837,-0.6352403136985619 l 16.133203768733566 -2.1651931323705425" fill="#ffbf11" stroke="none" /><path d="M 79.18660465613746 102.79330883721812 l -22.681826771961404 3.0440659065774787 a43.88518304398836,43.88518304398836 0 0,0 -0.09403652397168037,-0.7495636194155182 l 22.730864805179934 -2.653184532874552" fill="#ebff1a" stroke="none" /><path d="M 79.1416061653843 102.43462659150553 l -16.10105140376743 1.879341631461332 a37.210360306745336,37.210360306745336 0 0,0 -0.06878193082973652,-0.6368352551541325 l 16.131015636098216 -1.6019100544224174" fill="#ffbe11" stroke="none" /><path d="M 79.07016306316243 101.71520430193888 l -24.238837359185695 1.98637754502993 a45.320093179847305,45.320093179847305 0 0,0 -0.05702442016497862,-0.7780529070383285 l 24.26943833801501 -1.5688515014948408" fill="#d9ff1c" stroke="none" /><path d="M 79.0235259727143 100.99374915477108 l -49.034037287260915 2.3229610966001943 a70.08903096359523,70.08903096359523 0 0,0 -0.046718902096022634,-1.2056072723233853 l 49.06675832220814 -1.478576577262812" fill="#3bff9d" stroke="none" /><line stroke="#e1ed5e" stroke-width="0.3" x1="15.007084014347285" x2="10.007500721073583" y1="101.09737516637583" y2="101.16192664675087" /><path d="M 14.007167355692545 101.11028546245083 a86.0,86.0 0 0,1 10.666146001902534,-42.60595125391555" fill="none" id="id10" stroke="none" /><text fill="#e1ed5e" style="font-size:6.75px; font-family:Arial;" text-anchor="middle"><textPath startOffset="22.20632615414155" xlink:href="#id10">October</textPath></text><path d="M 79.00175016825051 100.2711162175752 l -25.917008894588736 0.33462414623430564 a46.919169033004025,46.919169033004025 0 0,0 -0.003475822782805269,-0.80765880457098 l 25.918929014661046 0.11154413654034975" fill="#c6ff1e" stroke="none" /><path d="M 79.00019446554 99.90962569577889 l -15.745301473275076 -0.06776113536213306 a36.745447280270696,36.745447280270696 0 0,0 0.008166225757780084,-0.6324831844365857 l 15.741802240399581 0.3387805778591907" fill="#ffb811" stroke="none" /><path d="M 79.01574976396665 99.18683210126434 l -13.278619178962797 -0.51456433917885 a34.28858546870483,34.28858546870483 0 0,0 0.02793114172127737,-0.5895822563027142 l 13.26779442900802 0.7430577021045733" fill="#ff970d" stroke="none" /><path d="M 79.03285615573316 98.82574320788736 l -62.90143153280056 -3.522770376337934 a84.0,84.0 0 0,0 0.09327763598234728,-1.442963742987953 l 62.831473305813795 4.604993183578899" fill="#4dd2ff" stroke="none" /><path d="M 79.08570108090925 98.10471618934814 l -23.8389081641402 -2.160316101529426 a44.93659349441431,44.93659349441431 0 0,0 0.07644115626998776,-0.769752011748997 l 23.798189882187984 2.5703436439828535" fill="#deff1b" stroke="none" /><line stroke="#e1ed5e" stroke-width="0.3" x1="26.266209847984243" x2="21.928928074336255" y1="57.711370442889674" y2="55.22380399835377" /><path d="M 25.398753493254645 57.213857153982495 a86.0,86.0 0 0,1 29.58750427330803,-30.492523968695096" fill="none" id="id11" stroke="none" /><text fill="#e1ed5e" style="font-size:6.75px; font-family:Arial;" text-anchor="middle"><textPath startOffset="21.46611528233685" xlink:href="#id11">November</textPath></text><line stroke="#e1ed5e" stroke-width="0.3" x1="56.762969772571076" x2="54.21961505331055" y1="26.818313649435495" y2="22.513508569990535" /><path d="M 56.25429882871897 25.957352633546506 a86.0,86.0 0 0,1 42.265352541879196,-11.944610805530505" fill="none" id="id12" stroke="none" /><text fill="#e1ed5e" style="font-size:6.75px; font-family:Arial;" text-anchor="middle"><textPath startOffset="22.20632615414155" xlink:href="#id12">December</textPath></text></svg>